<svg width="24" height="24" viewBox="0 0 24 24" fill="none" xmlns="http://www.w3.org/2000/svg">
<path d="M8 12C11.309 12 14 9.309 14 6C14 2.691 11.309 0 8 0C4.691 0 2 2.691 2 6C2 9.309 4.691 12 8 12ZM8 3C9.654 3 11 4.346 11 6C11 7.654 9.654 9 8 9C6.346 9 5 7.654 5 6C5 4.346 6.346 3 8 3ZM16 22V22.5C16 23.329 15.329 24 14.5 24C13.671 24 13 23.329 13 22.5V22C13 19.243 10.757 17 8 17C5.243 17 3 19.243 3 22V22.5C3 23.329 2.329 24 1.5 24C0.671 24 0 23.329 0 22.5V22C0 17.589 3.589 14 8 14C12.411 14 16 17.589 16 22ZM23.561 10.651L20.422 13.79C19.617 14.596 18.559 14.998 17.501 14.998C16.443 14.998 15.385 14.595 14.58 13.79L13.441 12.652C12.855 12.066 12.855 11.116 13.441 10.53C14.027 9.944 14.977 9.945 15.563 10.53L16.702 11.669C17.144 12.11 17.862 12.111 18.303 11.669L21.442 8.53C22.028 7.944 22.978 7.944 23.563 8.53C24.149 9.116 24.149 10.066 23.563 10.651H23.561Z" fill="#6A6B6E"/>
</svg>
