<svg width="21" height="21" viewBox="0 0 21 21" fill="none" xmlns="http://www.w3.org/2000/svg">
<path d="M20.1031 7.60719L13.9029 1.40695C12.0221 -0.468982 8.97791 -0.468982 7.09714 1.40695L0.896899 7.60719C0.320713 8.1803 -0.00224412 8.96009 1.17389e-05 9.77281V18.8535C0.00193947 20.0388 0.962852 20.9989 2.14816 20.9999H18.8519C20.0372 20.999 20.9981 20.0388 21 18.8535V9.77281C21.0023 8.96009 20.6793 8.1803 20.1031 7.60719ZM18.375 18.3749H14V15.5907C14 13.7456 12.5043 12.2499 10.6593 12.2499H10.3408C8.49573 12.2499 7.00002 13.7456 7.00002 15.5907V18.3749H2.62501V9.77281C2.6253 9.65678 2.67115 9.54554 2.75277 9.46306L8.95302 3.26282C9.80716 2.40842 11.1922 2.40826 12.0466 3.26241C12.0467 3.26253 12.0469 3.2627 12.047 3.26282L18.2473 9.46306C18.3288 9.54554 18.3747 9.65678 18.375 9.77281V18.3749H18.375Z" fill="#6A6B6E"/>
</svg>
