<svg width="24" height="24" viewBox="0 0 24 24" fill="none" xmlns="http://www.w3.org/2000/svg">
<path d="M9 12.5007C9 13.3287 8.328 14.0007 7.5 14.0007C6.672 14.0007 6 13.3287 6 12.5007C6 11.6727 6.672 11.0007 7.5 11.0007C8.328 11.0007 9 11.6727 9 12.5007ZM15 18.0007H18V24.0007H0V4.70072C0 3.03972 1.183 1.59672 2.813 1.26972L8.813 0.0687162C9.847 -0.138284 10.905 0.127716 11.719 0.794716C12.125 1.12772 12.444 1.54072 12.663 2.00072H14.5C16.43 2.00072 18 3.57072 18 5.50072V11.0007H15V5.50072C15 5.22572 14.775 5.00072 14.5 5.00072H13V21.0007H15V18.0007ZM10 3.50172C10 3.29572 9.885 3.17072 9.817 3.11472C9.749 3.05772 9.603 2.97272 9.402 3.01072L3.402 4.21072C3.169 4.25772 3 4.46372 3 4.70072V21.0007H10V3.50172ZM23.658 13.7937L19.951 10.0007V13.0007H15V16.0007H19.951V19.0007L23.658 15.2077C24.049 14.8177 24.049 14.1837 23.658 13.7937Z" fill="#6A6B6E"/>
</svg>
