<svg width="2300" height="2100" viewBox="0 0 2300 2100" fill="none" xmlns="http://www.w3.org/2000/svg">
<mask id="mask0_141_623" style="mask-type:luminance" maskUnits="userSpaceOnUse" x="0" y="0" width="2300" height="2100">
<path d="M2300 0H0V2100H2300V0Z" fill="white"/>
</mask>
<g mask="url(#mask0_141_623)">
<path d="M475.22 806.52H292.82C288.55 806.52 284.455 808.216 281.436 811.236C278.416 814.255 276.72 818.35 276.72 822.62V992.39C276.72 996.66 278.416 1000.76 281.436 1003.77C284.455 1006.79 288.55 1008.49 292.82 1008.49H356.65L384.02 1046.49L411.38 1008.49H475.22C479.49 1008.49 483.585 1006.79 486.604 1003.77C489.624 1000.76 491.32 996.66 491.32 992.39V822.62C491.32 818.35 489.624 814.255 486.604 811.236C483.585 808.216 479.49 806.52 475.22 806.52Z" fill="#F0F2F5"/>
<path d="M1021.73 415.6H764.31C758.283 415.6 752.504 417.993 748.241 422.254C743.979 426.515 741.583 432.293 741.58 438.32V677.91C741.58 683.938 743.975 689.72 748.238 693.983C752.5 698.245 758.282 700.64 764.31 700.64H854.4L893 754.2L931.62 700.64H1021.71C1027.74 700.637 1033.52 698.241 1037.78 693.979C1042.04 689.717 1044.43 683.937 1044.43 677.91V438.32C1044.43 432.298 1042.04 426.522 1037.78 422.262C1033.53 418.001 1027.75 415.605 1021.73 415.6Z" fill="#F0F2F5"/>
<path d="M563.41 287.29H252.21C244.924 287.29 237.937 290.184 232.786 295.336C227.634 300.487 224.74 307.475 224.74 314.76V604.4C224.739 608.008 225.448 611.581 226.828 614.915C228.208 618.249 230.231 621.279 232.782 623.831C235.333 626.383 238.362 628.407 241.695 629.788C245.029 631.169 248.602 631.88 252.21 631.88H361.13L407.81 696.63L454.5 631.88H563.41C567.018 631.88 570.591 631.169 573.925 629.788C577.258 628.407 580.287 626.383 582.838 623.831C585.389 621.279 587.412 618.249 588.792 614.915C590.172 611.581 590.881 608.008 590.88 604.4V314.76C590.88 307.475 587.986 300.487 582.834 295.336C577.683 290.184 570.695 287.29 563.41 287.29Z" fill="#E1E6EB"/>
<path d="M770.16 1427.71C770.16 1422.53 769.82 1417.36 769.33 1412.22C768.84 1407.08 768.22 1401.94 767.4 1396.83C765.774 1386.62 763.398 1376.55 760.29 1366.69C757.277 1356.8 753.381 1347.2 748.65 1338C743.898 1328.81 738.219 1320.13 731.7 1312.1C738.463 1319.96 744.295 1328.58 749.08 1337.78C753.898 1346.96 757.881 1356.56 760.98 1366.46C764.017 1376.37 766.32 1386.5 767.87 1396.75C769.512 1406.99 770.278 1417.34 770.16 1427.71Z" fill="#E1E6EB"/>
<path d="M739.21 1556.51C738.232 1552.28 736.959 1548.13 735.4 1544.08C733.893 1540.01 732.163 1536.04 730.22 1532.16C726.378 1524.39 721.715 1517.06 716.31 1510.29C713.602 1506.91 710.711 1503.69 707.65 1500.63C704.558 1497.6 701.307 1494.74 697.91 1492.05C691.049 1486.73 683.617 1482.2 675.75 1478.53C683.75 1481.97 691.305 1486.36 698.25 1491.61C701.701 1494.26 704.993 1497.12 708.11 1500.16C711.209 1503.22 714.133 1506.45 716.87 1509.84C722.285 1516.67 726.93 1524.07 730.72 1531.92C734.558 1539.73 737.41 1547.99 739.21 1556.51Z" fill="#E1E6EB"/>
</g>
<path d="M1921.1 1602.18V1852.62H1151.67L1155.77 1738.34C925.2 1547.34 1113.77 1462.24 1113.77 1462.24L1140.59 1343C1139.25 1198.28 1164.98 1114.36 1179.95 1077.94C1185.94 1063.38 1195.65 1050.64 1208.1 1041C1234.1 1020.9 1274.79 995.22 1308.99 974.56C1343.19 953.9 1370.87 938.25 1370.87 938.25C1371.72 923.886 1376.42 910.014 1384.46 898.083C1392.51 886.152 1403.6 876.599 1416.6 870.42C1497.82 832.09 1588.45 824.42 1634.87 823.16C1644.33 822.906 1653.72 824.788 1662.34 828.666C1670.97 832.545 1678.61 838.319 1684.7 845.56L1715.55 882.26C1908.37 917.48 1932.29 952.26 1932.29 952.26C2108.86 1017.64 1921.1 1602.18 1921.1 1602.18Z" fill="#00796B"/>
<path d="M1525 997.85C1475.66 1052.25 1370.17 1290.63 1558.4 1852.62H1257L1283.78 1627.62C1283.78 1627.62 1236.01 1215.9 1370.72 975.56C1375.72 966.56 1392.16 945.15 1402.72 931.03C1408.39 923.48 1413.25 911.39 1422.66 902.64C1459.66 868.2 1527.56 831.98 1641.59 853.75C1641.59 853.75 1613.87 920.19 1545.99 979.41C1546 979.38 1537.2 984.36 1525 997.85Z" fill="#1F4168"/>
<path d="M1641.58 853.73C1641.58 853.73 1613.86 920.15 1545.98 979.37C1545.98 979.37 1537.21 984.37 1524.98 997.85C1495.8 1032.41 1424.62 1055.39 1424.62 1055.39C1376.27 1017.39 1370.69 975.53 1370.69 975.53L1394.85 936.22C1398.29 930.619 1399.63 923.977 1398.63 917.48L1395.51 897.22L1378.76 788.79L1571.84 696.15C1599.43 796.94 1641.58 853.73 1641.58 853.73Z" fill="#FFC89F"/>
<path d="M1164.64 630.45C1164.64 630.45 1165.64 685.82 1182.74 709.65C1199.84 733.48 1211.08 720.86 1211.08 720.86C1211.08 720.86 1167.49 678.6 1168.21 628.45L1164.64 630.45Z" fill="#1B1B2F"/>
<path d="M1567 669.69L1646.5 550.69C1646.5 550.69 1674.81 605.97 1650.29 656.69C1635.04 688.25 1654.72 711.16 1654.72 711.16C1654.72 711.16 1623.22 716.06 1624.35 683.8V683.9C1623.67 685.9 1615.35 697.62 1622.26 727.3C1622.26 727.3 1610.86 729.61 1605.26 721.3C1602.9 717.616 1602.05 713.164 1602.89 708.87C1596.42 716.61 1586.23 722.49 1577.81 720.21L1586.2 702.1C1584.07 706.32 1577.12 717.73 1561.41 725.41C1538.89 736.42 1523 729 1523 729L1567 669.69Z" fill="#1B1B2F"/>
<path d="M1455 899.24C1475.51 895.077 1494.99 886.915 1512.35 875.22C1529.7 863.525 1544.58 848.527 1556.14 831.082C1567.7 813.636 1575.7 794.085 1579.71 773.545C1583.71 753.005 1583.62 731.878 1579.46 711.37L1540.68 520.6C1532.27 479.183 1507.76 442.801 1472.53 419.458C1437.3 396.116 1394.24 387.724 1352.82 396.13C1311.4 404.539 1275.02 429.056 1251.68 464.288C1228.34 499.52 1219.94 542.581 1228.35 584L1267.08 774.78C1271.24 795.292 1279.41 814.784 1291.11 832.14C1302.81 849.497 1317.81 864.379 1335.26 875.937C1352.71 887.494 1372.27 895.501 1392.81 899.499C1413.36 903.498 1434.49 903.41 1455 899.24Z" fill="#FFC89F"/>
<path d="M1453.28 887C1436.19 901.4 1414.62 911.4 1398.62 917.49L1395.94 900.12C1432.31 902.6 1453.28 887 1453.28 887Z" fill="#FF9A6C"/>
<path d="M1311.79 653.752C1316.17 647.149 1314.36 638.251 1307.76 633.878C1301.15 629.504 1292.26 631.311 1287.88 637.914C1283.51 644.517 1285.32 653.415 1291.92 657.788C1298.52 662.162 1307.42 660.355 1311.79 653.752Z" fill="#1B1B2F"/>
<path d="M1270.13 626C1274.77 623.677 1279.69 621.954 1284.77 620.87C1289.85 619.704 1295.04 619.094 1300.25 619.05C1302.85 618.95 1305.46 619.19 1308.05 619.34C1310.64 619.607 1313.22 620.021 1315.76 620.58C1317.03 620.89 1318.31 621.11 1319.55 621.49L1323.27 622.64C1324.51 623.037 1325.72 623.504 1326.9 624.04C1328.09 624.54 1329.27 625.06 1330.44 625.6C1325.54 624.036 1320.52 622.843 1315.44 622.03C1310.41 621.229 1305.31 620.871 1300.22 620.96C1295.12 621.005 1290.03 621.457 1285 622.31C1282.48 622.72 1280 623.24 1277.49 623.87C1274.98 624.5 1272.58 625.2 1270.13 626Z" fill="#1B1B2F"/>
<path d="M1433.37 618.84C1433.93 621.621 1435.31 624.172 1437.33 626.171C1439.34 628.17 1441.9 629.526 1444.69 630.069C1447.48 630.611 1450.36 630.316 1452.98 629.219C1455.59 628.123 1457.83 626.275 1459.4 623.909C1460.96 621.543 1461.79 618.766 1461.78 615.928C1461.77 613.09 1460.92 610.319 1459.33 607.965C1457.75 605.612 1455.5 603.781 1452.87 602.705C1450.25 601.629 1447.36 601.356 1444.58 601.92C1442.73 602.295 1440.98 603.03 1439.41 604.083C1437.85 605.136 1436.51 606.487 1435.47 608.058C1434.43 609.629 1433.71 611.39 1433.35 613.24C1432.99 615.09 1432.99 616.993 1433.37 618.84Z" fill="#1B1B2F"/>
<path d="M1420 607.44C1423.52 603.937 1427.42 600.841 1431.63 598.21C1435.81 595.516 1440.24 593.216 1444.85 591.34C1447.14 590.34 1449.52 589.61 1451.85 588.8C1454.23 588.077 1456.65 587.476 1459.09 587C1460.32 586.78 1461.52 586.49 1462.76 586.33L1466.45 585.86C1467.68 585.7 1468.92 585.67 1470.16 585.63C1471.4 585.59 1472.63 585.55 1473.87 585.54C1469.01 586.227 1464.18 587.191 1459.43 588.43C1454.7 589.666 1450.07 591.23 1445.56 593.11C1441.03 594.956 1436.62 597.08 1432.36 599.47C1430.22 600.65 1428.12 601.93 1426.06 603.26C1424 604.59 1422 606 1420 607.44Z" fill="#1B1B2F"/>
<path d="M1371.52 576.33C1372.13 579.567 1373.18 582.705 1374.64 585.66C1376.04 588.554 1378.02 591.133 1380.45 593.24C1380.75 593.5 1381.02 593.78 1381.34 594.03L1382.34 594.69C1382.97 595.169 1383.64 595.588 1384.34 595.94L1386.49 597L1388.78 597.77L1389.94 598.16L1391.13 598.39L1393.54 598.88C1395.17 599.14 1396.83 599.17 1398.54 599.41C1396.89 599.6 1395.2 599.76 1393.54 599.81L1391 599.63L1389.72 599.51L1388.47 599.22C1385.05 598.529 1381.87 596.965 1379.24 594.68C1376.62 592.397 1374.59 589.511 1373.33 586.27C1372.04 583.118 1371.43 579.733 1371.52 576.33Z" fill="#FF9A6C"/>
<path d="M1358.62 578C1360.05 581.088 1360.82 584.439 1360.88 587.84C1360.98 591.316 1360.23 594.764 1358.71 597.89C1357.18 601.023 1354.86 603.704 1351.98 605.67L1350.98 606.43L1349.85 607.03L1347.58 608.19C1346 608.81 1344.38 609.31 1342.79 609.78C1344.23 608.91 1345.79 608.24 1347.14 607.36L1349.14 605.97L1350.14 605.29L1351.05 604.49L1352.86 602.89L1354.42 601.07C1354.94 600.467 1355.41 599.817 1355.81 599.13L1356.46 598.13C1356.65 597.78 1356.8 597.41 1356.97 597.05C1358.38 594.162 1359.2 591.02 1359.37 587.81C1359.56 584.521 1359.3 581.222 1358.62 578Z" fill="#FF9A6C"/>
<path d="M1369 669.77C1369.77 675.94 1370.33 682.12 1370.85 688.3C1371.37 694.48 1371.85 700.67 1372.2 706.86C1372.22 709.893 1372.59 712.913 1373.31 715.86C1374.06 718.766 1375.31 721.52 1377 724C1378.64 726.516 1380.99 728.495 1383.75 729.69C1386.62 730.86 1389.53 731.94 1392.39 733.16C1389.39 732.35 1386.39 731.45 1383.39 730.58C1380.35 729.467 1377.7 727.485 1375.77 724.88C1373.82 722.324 1372.38 719.423 1371.51 716.33C1370.72 713.261 1370.29 710.109 1370.24 706.94C1369.89 700.75 1369.54 694.55 1369.34 688.35C1369.14 682.15 1369 676 1369 669.77Z" fill="#1B1B2F"/>
<path d="M1280.6 576.33C1286.8 578.65 1291.46 580.53 1295.96 582.08C1300.46 583.63 1304.3 584.99 1308.32 586.08C1308.8 586.278 1309.3 586.422 1309.81 586.51L1311.33 586.91C1311.84 587.06 1312.33 587.21 1312.85 587.39C1313.37 587.57 1313.85 587.6 1314.42 587.74C1315.42 587.98 1316.53 588.31 1317.62 588.63C1318.71 588.95 1319.85 589.09 1321.01 589.41C1321.59 589.55 1322.18 589.76 1322.78 589.94C1323.38 590.12 1323.98 590.14 1324.6 590.3C1325.84 590.57 1327.12 590.91 1328.45 591.3C1331.41 591.93 1334.31 592.779 1337.14 593.84C1335.25 596.413 1332.95 598.667 1330.35 600.52C1329.04 601.32 1327.69 602.09 1326.28 602.78C1325.59 603.15 1324.87 603.45 1324.15 603.78C1323.43 604.11 1322.67 604.28 1321.92 604.48C1320.4 604.9 1318.86 605.26 1317.3 605.57C1315.74 605.88 1314.12 605.81 1312.51 605.84C1311.71 605.84 1310.9 605.84 1310.09 605.84L1307.68 605.52C1306.06 605.326 1304.47 604.991 1302.91 604.52C1296.62 602.708 1291.02 599.042 1286.84 594C1286.32 593.396 1285.84 592.758 1285.41 592.09C1284.96 591.44 1284.5 590.79 1284.1 590.09C1283.31 588.715 1282.62 587.284 1282.04 585.81C1280.84 582.803 1280.34 579.559 1280.6 576.33Z" fill="#1B1B2F"/>
<path d="M1405.59 576.55C1410.29 571.9 1413.94 568.44 1417.23 565C1420.52 561.56 1423.37 558.65 1426.02 555.45C1426.4 555.094 1426.73 554.698 1427.02 554.27L1428.02 553.05C1428.38 552.66 1428.72 552.26 1429.09 551.88C1429.46 551.5 1429.72 551.01 1430.09 550.6C1430.74 549.74 1431.49 548.92 1432.24 548.06C1432.99 547.2 1433.59 546.22 1434.36 545.31C1434.73 544.84 1435.17 544.39 1435.58 543.92C1435.99 543.45 1436.27 542.92 1436.67 542.41C1437.43 541.41 1438.28 540.41 1439.19 539.34C1440.99 536.914 1442.98 534.627 1445.13 532.5C1446.68 535.31 1447.77 538.348 1448.36 541.5C1448.54 543.02 1448.68 544.57 1448.71 546.13C1448.71 546.92 1448.71 547.7 1448.71 548.48C1448.71 549.26 1448.54 550.04 1448.41 550.81C1448.17 552.36 1447.84 553.91 1447.47 555.46C1447.1 557.01 1446.36 558.46 1445.72 559.92C1445.39 560.66 1445.08 561.4 1444.72 562.11L1443.42 564.11C1442.56 565.496 1441.59 566.805 1440.5 568.02C1436.25 572.979 1430.61 576.547 1424.31 578.26C1423.54 578.483 1422.76 578.65 1421.97 578.76C1421.19 578.9 1420.42 579.04 1419.63 579.12C1418.05 579.265 1416.46 579.295 1414.88 579.21C1411.62 579.061 1408.44 578.15 1405.59 576.55Z" fill="#1B1B2F"/>
<path d="M1447.57 448.09C1433.83 428.57 1407.57 422.15 1386.71 433.69C1370.99 442.38 1353.57 460.52 1339.07 496.84C1334.02 509.741 1330.17 523.076 1327.55 536.68C1322.69 561.14 1305.27 621.68 1248.55 653.68L1261.27 746.36L1258.8 745.81C1218.43 725.96 1185.99 690.53 1168.69 646.56C1167.36 643.227 1166.07 639.8 1164.82 636.28C1164.82 636.28 1168.88 647.84 1160.82 658.19C1153.53 667.58 1139.43 667.01 1139.43 667.01C1139.43 667.01 1158.07 629.95 1134.74 575.21C1113.66 525.77 1129.13 488.11 1170.74 453.13C1170.74 453.13 1137.51 464.44 1125.07 434.01C1125.07 434.01 1206.64 451.81 1245.6 380.73C1293.43 293.44 1376.6 288.59 1408.43 351.97C1408.43 351.97 1417.86 310.22 1451.49 326.79C1485.12 343.36 1521.49 374.13 1572.92 384.71C1624.35 395.29 1615.28 529.11 1692.71 542.83C1692.71 542.83 1657.71 567.65 1636.23 527.63C1636.23 527.63 1695.31 613.76 1577.03 703.78L1568.16 610.78C1568.16 610.78 1511.74 611.27 1488.84 548.46C1471.26 500.17 1463.55 470.8 1447.57 448.09Z" fill="#1B1B2F"/>
<path d="M1408 351.88C1407.96 348.351 1408.29 344.828 1409 341.37C1409.67 337.85 1410.71 334.41 1412.11 331.11C1413.53 327.682 1415.42 324.471 1417.73 321.57C1420.15 318.528 1423.14 315.979 1426.52 314.06C1429.98 312.105 1433.8 310.893 1437.75 310.5C1441.58 310.08 1445.45 310.272 1449.22 311.07C1456.63 312.6 1463.15 316.07 1469.07 319.92C1474.82 323.935 1480.32 328.303 1485.53 333C1490.72 337.6 1495.91 342.12 1501.02 346.75C1506.13 351.38 1511.1 356.24 1516.67 359.75C1519.42 361.483 1522.33 362.946 1525.36 364.12C1526.9 364.66 1528.43 365.19 1529.98 365.68C1531.53 366.17 1533.11 366.6 1534.72 366.96C1547.5 370.09 1561.07 371.21 1574.57 372.17C1578.17 372.364 1581.76 372.771 1585.32 373.39C1589.12 374.097 1592.82 375.287 1596.32 376.93C1599.94 378.637 1603.24 380.969 1606.05 383.82C1608.82 386.635 1611.1 389.889 1612.8 393.45C1616.13 400.4 1617.61 407.6 1618.51 414.58C1619.41 421.56 1619.82 428.47 1620.27 435.28C1621.27 448.86 1622.43 462.38 1627.71 475.05L1626.86 475.5C1623.11 469.589 1620.24 463.166 1618.33 456.43C1616.43 449.73 1614.95 442.921 1613.88 436.04C1612.71 429.23 1611.8 422.45 1610.46 415.92C1609.12 409.39 1607.46 403.05 1604.46 397.76C1603.05 395.197 1601.26 392.861 1599.15 390.83C1597.05 388.84 1594.63 387.209 1592 386C1589.24 384.803 1586.36 383.924 1583.4 383.38C1580.34 382.8 1577.29 382.62 1573.72 382.25C1570.15 381.88 1566.82 381.53 1563.36 381.04L1558.19 380.33L1553.02 379.44C1546.03 378.305 1539.15 376.595 1532.45 374.33C1525.58 371.983 1519.21 368.379 1513.66 363.7C1508.2 358.97 1503.86 353.61 1498.96 348.9C1489.35 339.281 1478.11 331.434 1465.77 325.72C1459.95 322.939 1453.82 320.845 1447.52 319.48C1444.56 318.851 1441.54 318.619 1438.52 318.79C1435.61 319 1432.77 319.732 1430.12 320.95C1424.82 323.4 1420.39 328.07 1416.97 333.58C1413.54 339.336 1410.85 345.505 1408.97 351.94L1408 351.88Z" fill="#1B1B2F"/>
<path d="M1431 432.84C1423.08 430.56 1415 431.66 1407.55 434.22C1400.1 436.78 1393.2 440.92 1386.64 445.51C1379.88 450.052 1373.69 455.394 1368.21 461.42C1362.86 467.642 1358.24 474.465 1354.46 481.75L1351.66 487.21L1349 492.74C1347.19 496.4 1345.53 500.14 1343.81 503.84C1342.09 507.54 1340.52 511.31 1339.06 515.13L1336.74 520.8L1334.52 526.51C1328.41 541.68 1322.95 557.14 1317.05 572.63L1316.5 572.49C1318.9 556.043 1323.02 539.895 1328.79 524.31C1331.73 516.521 1335.11 508.905 1338.91 501.5C1342.66 494.056 1346.96 486.903 1351.78 480.1C1356.62 473.32 1361.6 466.71 1366.78 460.22C1371.96 453.73 1377.23 447.22 1383.78 441.71C1387.04 438.965 1390.59 436.591 1394.37 434.63C1396.24 433.63 1398.22 432.77 1400.18 431.91C1402.19 431.128 1404.24 430.46 1406.32 429.91C1410.49 428.789 1414.81 428.35 1419.12 428.61C1423.41 428.829 1427.58 430.089 1431.28 432.28L1431 432.84Z" fill="#1B1B2F"/>
<path d="M1571.72 610.36C1561.22 613.632 1550.2 614.91 1539.23 614.13C1533.68 613.739 1528.2 612.733 1522.87 611.13C1517.49 609.563 1512.36 607.254 1507.62 604.27C1498.08 598.27 1490.72 589.62 1485.01 580.37C1479.33 571.044 1474.84 561.043 1471.65 550.6C1468.39 540.15 1466.31 529.365 1465.47 518.45C1464.66 507.832 1463.14 497.281 1460.9 486.87C1458.8 476.522 1455.44 466.47 1450.9 456.94C1448.58 452.214 1445.79 447.734 1442.57 443.57C1439.4 439.319 1435.48 435.683 1431 432.84L1431.21 432.31C1433.81 433.261 1436.26 434.581 1438.48 436.23C1440.74 437.826 1442.86 439.62 1444.81 441.59C1446.78 443.54 1448.61 445.636 1450.27 447.86C1451.96 450.06 1453.51 452.358 1454.93 454.74C1460.49 464.325 1464.54 474.711 1466.93 485.53C1469.23 496.24 1470.53 507.14 1470.83 518.09C1471.26 528.751 1472.51 539.362 1474.57 549.83C1476.79 560.26 1480.57 570.51 1486.57 579.33C1489.58 583.719 1493.13 587.708 1497.14 591.2C1501.11 594.619 1505.44 597.606 1510.04 600.11C1514.61 602.603 1519.4 604.672 1524.35 606.29C1529.35 607.872 1534.47 609.02 1539.66 609.72C1550.26 611.022 1560.97 611.049 1571.58 609.8L1571.72 610.36Z" fill="#1B1B2F"/>
<path d="M1138.56 582.3C1136.46 579.785 1134.51 577.139 1132.74 574.38C1131.01 571.62 1129.56 568.71 1128.11 565.79C1126.66 562.87 1125.6 559.79 1124.49 556.71C1123.46 553.599 1122.69 550.413 1122.16 547.18C1121.4 540.61 1121.69 533.98 1121.64 527.52C1121.59 521.06 1121.16 514.64 1121.28 508C1121.28 506.33 1121.36 504.661 1121.54 503C1121.66 501.321 1121.88 499.651 1122.21 498C1122.54 496.35 1122.92 494.7 1123.39 493.07C1123.86 491.44 1124.47 489.85 1125.05 488.25C1127.46 481.825 1131.03 475.899 1135.59 470.77C1140.19 465.762 1145.62 461.59 1151.65 458.44C1157.53 455.244 1163.99 453.265 1170.65 452.62L1170.92 453.54C1165.66 456.922 1160.63 460.65 1155.86 464.7C1151.34 468.605 1147.15 472.88 1143.33 477.48C1139.49 481.949 1136.14 486.813 1133.33 491.99L1131.33 495.99C1130.69 497.35 1130.23 498.77 1129.57 500.14C1128.37 502.958 1127.33 505.839 1126.45 508.77C1125.53 511.754 1124.89 514.817 1124.55 517.92C1124.27 521.044 1124.33 524.188 1124.71 527.3C1125.32 533.56 1128.04 539.46 1129.92 545.3C1130.99 548.204 1131.89 551.165 1132.62 554.17C1133.55 557.17 1134.25 560.17 1135.09 563.17C1135.93 566.17 1136.7 569.24 1137.46 572.33C1138.3 575.459 1138.94 578.634 1139.4 581.84L1138.56 582.3Z" fill="#1B1B2F"/>
<path d="M1585.25 703.874L1593.38 702.222C1609.42 698.964 1619.79 683.319 1616.53 667.276L1606 615.405C1602.74 599.363 1587.09 588.999 1571.05 592.257L1562.92 593.909C1546.87 597.167 1536.51 612.813 1539.77 628.855L1550.3 680.726C1553.56 696.769 1569.21 707.132 1585.25 703.874Z" fill="#FFC89F"/>
<path d="M1561.59 612C1564.36 611.073 1567.27 610.623 1570.19 610.67C1574.73 610.849 1579.15 612.163 1583.06 614.491C1586.96 616.82 1590.22 620.089 1592.53 624C1594.09 626.617 1595.2 629.472 1595.84 632.45C1596.41 635.35 1596.84 638.08 1597.28 640.93C1598.14 646.56 1598.86 652.22 1599.21 657.93C1597.3 652.51 1595.76 647.01 1594.35 641.49C1593.6 638.77 1593.04 635.89 1592.35 633.25C1591.71 630.669 1590.68 628.203 1589.28 625.94C1587.96 623.63 1586.27 621.55 1584.28 619.78C1582.33 617.938 1580.12 616.392 1577.72 615.19C1575.28 613.974 1572.69 613.083 1570.02 612.54C1567.24 612.039 1564.41 611.858 1561.59 612Z" fill="#FF9A6C"/>
<path d="M1584.44 669.31C1582.71 668.903 1581.11 668.102 1579.74 666.97C1576.99 664.749 1575.08 661.661 1574.31 658.21C1573.91 656.48 1573.91 654.68 1574.31 652.95C1575.43 654.39 1576.31 655.77 1577.11 657.1L1579.54 661.03L1582 665C1582.78 666.32 1583.64 667.68 1584.44 669.31Z" fill="#FF9A6C"/>
<path d="M1636.55 525.58C1641.48 529.023 1645.81 533.264 1649.35 538.13C1651.14 540.51 1652.78 542.994 1654.27 545.57C1655.8 548.125 1657.08 550.824 1658.09 553.63C1660.09 559.29 1660.91 565.32 1662.45 570.96C1663.99 576.6 1665.91 582.13 1667.84 587.82L1669.17 592.13C1669.56 593.59 1669.91 595.06 1670.23 596.54C1670.55 598.02 1670.72 599.54 1670.91 601.03C1671.1 602.52 1671.21 604.03 1671.28 605.57C1671.46 608.624 1671.48 611.684 1671.34 614.74C1671.13 617.804 1670.68 620.847 1669.99 623.84C1668.65 629.836 1666.36 635.576 1663.19 640.84C1662.42 642.15 1661.62 643.44 1660.77 644.7C1659.92 645.96 1658.94 647.13 1658 648.3C1657.09 649.497 1656.08 650.624 1655 651.67C1653.93 652.74 1652.84 653.77 1651.71 654.76L1650.92 654.22C1654.82 642.94 1658.31 632.57 1659.99 621.77C1660.57 619.12 1660.85 616.41 1661.37 613.77C1661.67 611.05 1662.12 608.34 1662.24 605.58C1662.36 604.21 1662.44 602.83 1662.44 601.44C1662.44 600.05 1662.57 598.66 1662.59 597.26C1662.61 595.86 1662.59 594.46 1662.71 593.03V588.76C1662.68 583.019 1661.61 577.332 1659.56 571.97C1657.5 566.6 1653.88 561.91 1650.91 557.1C1649.42 554.69 1648.08 552.22 1646.83 549.69C1645.58 547.16 1644.28 544.69 1643.04 542.1C1640.53 536.99 1638.04 531.82 1635.86 526.24L1636.55 525.58Z" fill="#1B1B2F"/>
<path d="M1316.26 315.11C1309.91 318.56 1303.88 322.03 1298.02 325.7C1295.11 327.58 1292.2 329.4 1289.38 331.36C1288.66 331.83 1287.96 332.36 1287.23 332.78C1286.5 333.2 1285.85 333.78 1285.13 334.27C1283.73 335.27 1282.24 336.13 1280.8 337.08C1277.95 339.02 1274.86 340.73 1272.03 342.82C1270.59 343.82 1269.13 344.82 1267.76 345.94C1266.39 347.06 1265.13 348.28 1263.86 349.51C1263.24 350.13 1262.6 350.74 1262 351.38C1261.4 352.02 1260.87 352.73 1260.32 353.38C1259.22 354.76 1258.16 356.17 1257.13 357.59C1256.11 359.027 1255.19 360.534 1254.38 362.1C1253.5 363.63 1252.7 365.21 1251.87 366.75C1250.33 369.92 1249.09 373.23 1247.57 376.34C1246.05 379.45 1244.3 382.89 1242.57 386.14C1240.63 389.3 1238.71 392.49 1236.49 395.52C1234.26 398.592 1231.73 401.439 1228.95 404.02C1223.36 409.19 1216.52 413.56 1208.78 415.35C1201.04 417.14 1192.69 416.53 1186.47 412.02L1186.91 411.17C1193.55 412.196 1200.35 411.148 1206.38 408.17C1209.29 406.798 1212.04 405.122 1214.59 403.17L1215.59 402.46L1216.51 401.64L1218.35 400.03C1218.95 399.48 1219.6 399.03 1220.17 398.42L1221.89 396.63C1224.31 394.41 1226.37 391.76 1228.67 389.31C1229.84 388.11 1230.76 386.64 1231.83 385.31C1232.9 383.98 1233.96 382.64 1234.96 381.25C1236.87 378.35 1238.73 375.52 1240.82 372.62C1241.89 371.12 1242.99 369.643 1244.1 368.19C1245.23 366.74 1246.26 365.24 1247.47 363.86C1249.93 361.14 1252.19 358.31 1254.58 355.6C1255.78 354.25 1256.96 352.89 1258.1 351.49L1259.8 349.39C1260.41 348.73 1260.99 348.04 1261.58 347.39C1262.74 346.01 1263.87 344.6 1264.97 343.14C1266.07 341.68 1267.31 340.35 1268.44 338.9C1270.73 336.008 1273.22 333.278 1275.89 330.73C1277.23 329.46 1278.71 328.35 1280.17 327.22C1280.9 326.66 1281.66 326.13 1282.41 325.59L1284.77 324.15C1287.91 322.207 1291.19 320.499 1294.58 319.04C1297.97 317.577 1301.49 316.402 1305.08 315.53C1308.67 314.586 1312.37 314.115 1316.08 314.13L1316.26 315.11Z" fill="#1B1B2F"/>
<path d="M1152 454.87C1157.23 455.113 1162.47 454.909 1167.66 454.26C1172.82 453.674 1177.93 452.722 1182.96 451.41C1192.97 448.853 1202.52 444.772 1211.29 439.31C1215.69 436.625 1219.85 433.574 1223.74 430.19C1225.74 428.58 1227.56 426.73 1229.46 424.98L1232.14 422.18C1233.05 421.26 1233.94 420.32 1234.77 419.32C1241.62 411.426 1247.65 402.855 1252.77 393.74C1248.94 403.635 1243.65 412.904 1237.09 421.24C1235.51 423.39 1233.66 425.32 1231.9 427.32C1230.14 429.32 1228.19 431.17 1226.16 432.91C1214.17 443.736 1199.49 451.132 1183.66 454.32C1173.24 456.539 1162.49 456.726 1152 454.87Z" fill="#1F4168"/>
<path d="M1160.4 658.75C1162.2 655.895 1163.48 652.737 1164.16 649.43C1164.91 646.188 1165.31 642.876 1165.36 639.55C1165.43 636.228 1165.25 632.906 1164.83 629.61L1164.13 624.67L1163.04 619.78C1162.72 618.134 1162.31 616.508 1161.8 614.91L1160.42 610.07C1159.29 606.9 1158.24 603.7 1157.07 600.53C1155.9 597.36 1154.63 594.21 1153.29 591.08C1151.95 587.95 1150.56 584.84 1149.29 581.61C1151.29 584.42 1153.09 587.33 1154.93 590.24C1156.77 593.15 1158.21 596.24 1159.78 599.36C1161.35 602.48 1162.46 605.72 1163.78 608.91L1165.32 613.91C1165.87 615.549 1166.33 617.219 1166.69 618.91C1168.39 625.718 1168.92 632.765 1168.25 639.75C1167.95 643.25 1167.19 646.695 1166 650C1164.81 653.299 1162.9 656.289 1160.4 658.75Z" fill="#1F4168"/>
<path d="M1287.36 621.69C1283.24 628.434 1278.29 634.638 1272.64 640.16C1269.83 642.951 1266.87 645.595 1263.78 648.08C1260.65 650.559 1257.38 652.869 1254 655C1247.24 659.251 1239.89 662.489 1232.19 664.61C1224.53 666.757 1216.52 667.403 1208.61 666.51C1220.2 665.597 1231.51 662.474 1241.92 657.31C1245.38 655.654 1248.74 653.797 1251.99 651.75C1258.55 647.666 1264.78 643.068 1270.61 638C1276.51 632.901 1282.11 627.455 1287.36 621.69Z" fill="#1F4168"/>
<path d="M1345.51 417.68C1333.34 427.31 1324.96 440.6 1319.51 454.75C1316.78 461.877 1314.54 469.184 1312.81 476.62C1311.02 484.06 1309.57 491.62 1308.3 499.16C1305.64 514.29 1303.64 529.62 1300.3 544.77C1298.71 552.369 1296.57 559.845 1293.91 567.14C1291.1 574.38 1287.68 581.46 1282.91 587.55C1286.9 580.988 1290 573.927 1292.14 566.55C1294.32 559.205 1296.07 551.739 1297.38 544.19C1300.07 529.08 1301.91 513.78 1304.51 498.52C1307.11 483.26 1310.51 467.98 1316.74 453.63C1319.8 446.429 1323.75 439.643 1328.5 433.43C1333.27 427.281 1339.01 421.959 1345.51 417.68Z" fill="#1F4168"/>
<path d="M1345.51 417.68C1348.4 415.28 1351.41 413.01 1354.43 410.68C1357.68 408.78 1360.88 406.68 1364.3 405.03C1366.04 404.26 1367.79 403.5 1369.56 402.77C1370.45 402.43 1371.31 401.98 1372.23 401.72L1375 401C1376.83 400.428 1378.7 399.951 1380.58 399.57L1386.31 398.73C1387.27 398.608 1388.23 398.561 1389.2 398.59H1392.1C1394.03 398.557 1395.97 398.694 1397.88 399C1398.88 399.13 1399.8 399.23 1400.75 399.39L1403.57 400.08L1406.38 400.79L1409.09 401.79C1416.3 404.418 1422.67 408.931 1427.54 414.86C1421.82 410.182 1415.21 406.697 1408.12 404.61C1401.16 402.582 1393.87 401.88 1386.65 402.54L1381.26 403.24C1379.46 403.49 1377.73 404.1 1375.95 404.48L1373.29 405.1C1372.41 405.352 1371.54 405.649 1370.69 405.99C1368.97 406.62 1367.24 407.22 1365.5 407.82C1363.76 408.42 1362.15 409.34 1360.44 410.05L1355.38 412.35C1352.14 414.14 1348.89 416 1345.51 417.68Z" fill="#1F4168"/>
<path d="M1656.66 580.24C1654.79 573.033 1652.45 565.955 1649.66 559.05C1646.7 552.321 1642.93 545.983 1638.42 540.18C1636.24 537.18 1633.94 534.18 1631.78 531.1C1629.59 528.001 1627.56 524.794 1625.7 521.49C1622 514.891 1619.03 507.91 1616.84 500.67C1620.51 507.25 1624.13 513.76 1628.25 519.92C1632.37 526.08 1636.96 531.92 1641.51 537.92C1643.78 540.984 1645.87 544.18 1647.77 547.49L1649.13 550.03C1649.56 550.88 1649.93 551.77 1650.33 552.64C1650.73 553.51 1651.15 554.38 1651.49 555.28L1652.43 557.99C1654.82 565.187 1656.24 572.669 1656.66 580.24Z" fill="#1F4168"/>
<path d="M1592.54 587.76C1580.95 585.9 1569.77 582.093 1559.45 576.5C1549.03 570.999 1539.45 564.038 1531 555.83C1522.55 547.617 1515.29 538.259 1509.44 528.03C1503.63 517.863 1499.18 506.977 1496.21 495.65C1500.55 506.372 1505.84 516.689 1512 526.48C1515.09 531.316 1518.46 535.967 1522.09 540.41C1523.86 542.67 1525.78 544.79 1527.66 546.95C1529.54 549.11 1531.58 551.13 1533.66 553.08C1541.88 561.086 1551.03 568.076 1560.92 573.9C1565.88 576.825 1570.99 579.466 1576.25 581.81C1581.52 584.207 1586.97 586.196 1592.54 587.76Z" fill="#1F4168"/>
<path d="M1418.53 369.35C1416.11 364.045 1414.84 358.283 1414.83 352.45C1414.83 349.359 1415.51 346.306 1416.83 343.51C1418.32 340.531 1420.89 338.237 1424.02 337.1C1427.01 336.147 1430.17 335.873 1433.27 336.3C1436.19 336.73 1439.06 337.477 1441.82 338.53C1447.2 340.579 1452.3 343.311 1456.99 346.66C1451.58 344.78 1446.29 342.79 1440.92 341.38C1435.55 339.97 1429.92 339.03 1425.34 340.7C1423.05 341.466 1421.15 343.081 1420.02 345.21C1418.82 347.522 1418.08 350.046 1417.84 352.64C1417.39 358.217 1417.62 363.829 1418.53 369.35Z" fill="#1F4168"/>
<path d="M1415.1 384.63C1411.29 379.828 1406.77 375.639 1401.69 372.21C1396.73 368.749 1391.35 365.921 1385.69 363.79C1374.31 359.643 1362.2 357.89 1350.12 358.64C1338.01 359.202 1326.11 361.981 1315 366.84C1309.42 369.294 1304.07 372.232 1299 375.62C1293.86 378.976 1289.1 382.868 1284.78 387.23C1292.6 377.471 1302.51 369.588 1313.78 364.16C1325.08 358.598 1337.39 355.419 1349.97 354.82C1356.25 354.526 1362.54 354.844 1368.76 355.77C1374.98 356.771 1381.06 358.527 1386.85 361C1398.31 365.93 1408.65 374.05 1415.1 384.63Z" fill="#1F4168"/>
<path d="M1189.79 594.76C1184.3 593.3 1179.62 589.26 1176.39 584.44C1175.64 583.2 1174.93 581.92 1174.25 580.62L1172.66 576.55C1171.83 573.76 1171.28 570.897 1171 568C1170.82 566.571 1170.75 565.13 1170.79 563.69L1170.87 559.39C1170.97 557.97 1171.23 556.56 1171.41 555.15C1171.57 553.739 1171.8 552.338 1172.1 550.95C1172.81 548.21 1173.46 545.45 1174.36 542.79C1175.26 540.13 1176.36 537.54 1177.56 534.99C1177.2 537.8 1176.69 540.53 1176.19 543.25C1175.69 545.97 1175.49 548.73 1175.05 551.42C1174.84 554.15 1174.61 556.86 1174.49 559.57C1174.6 562.26 1174.36 564.98 1174.81 567.57C1175.16 572.89 1176.58 578.085 1178.97 582.85C1181.44 587.718 1185.18 591.832 1189.79 594.76Z" fill="#1F4168"/>
<path d="M1209.24 593.41C1207.09 594.897 1204.57 595.765 1201.96 595.92C1199.21 596.113 1196.47 595.527 1194.04 594.23C1191.66 592.874 1189.61 591.001 1188.04 588.75C1187.32 587.641 1186.65 586.496 1186.04 585.32C1185.52 584.12 1185.04 582.89 1184.6 581.68L1187.84 580.68C1188.34 582.993 1188.76 585.327 1189.1 587.68C1189.47 590.041 1189.72 592.422 1189.83 594.81C1188.75 592.68 1187.77 590.493 1186.92 588.26C1186.06 586.05 1185.26 583.82 1184.55 581.56L1187.78 580.56C1188.31 581.62 1188.87 582.65 1189.35 583.72C1189.99 584.72 1190.51 585.72 1191.19 586.63C1192.47 588.445 1194.05 590.037 1195.85 591.34C1197.73 592.562 1199.85 593.364 1202.07 593.69C1204.46 593.99 1206.88 593.895 1209.24 593.41Z" fill="#1F4168"/>
<path d="M1225.06 480.24C1219.19 488.527 1214.09 497.33 1209.82 506.54C1205.52 515.63 1202.35 525.211 1200.38 535.07C1199.39 539.965 1198.82 544.937 1198.7 549.93C1198.55 552.43 1198.7 554.93 1198.7 557.42C1198.95 559.9 1199.08 562.42 1199.51 564.86C1199.94 567.3 1200.45 569.77 1200.94 572.24C1201.65 574.64 1202.19 577.11 1203.12 579.46C1204.79 584.255 1206.82 588.918 1209.19 593.41C1206.12 589.28 1203.5 584.835 1201.37 580.15C1200.21 577.84 1199.46 575.35 1198.52 572.93C1197.72 570.453 1197.06 567.936 1196.52 565.39C1195.43 560.29 1194.91 555.085 1194.97 549.87C1195 544.66 1195.52 539.464 1196.52 534.35C1197.55 529.255 1198.94 524.242 1200.7 519.35C1202.49 514.496 1204.61 509.771 1207.05 505.21C1211.85 496.079 1217.91 487.672 1225.06 480.24Z" fill="#1F4168"/>
<path d="M1310.14 473.36C1307.16 488.051 1303.05 502.491 1297.85 516.55C1292.74 530.698 1286.46 544.392 1279.06 557.49C1275.3 564.03 1271.17 570.347 1266.69 576.41C1262.15 582.463 1257.11 588.126 1251.62 593.34C1246.12 598.559 1239.94 603.016 1233.25 606.59C1226.58 610.133 1219.33 612.437 1211.84 613.39C1219.09 611.735 1226.01 608.883 1232.32 604.95C1238.6 601.076 1244.38 596.455 1249.55 591.19C1259.88 580.67 1268.4 568.44 1275.74 555.58C1279.49 549.19 1282.82 542.58 1286.04 535.86C1289.26 529.14 1292.23 522.35 1295.04 515.48C1297.85 508.61 1300.52 501.63 1303.04 494.61C1305.56 487.59 1307.93 480.51 1310.14 473.36Z" fill="#1F4168"/>
<path d="M1633.9 655.63C1632.85 659.63 1631.31 663.47 1629.99 667.27C1628.63 670.987 1627.54 674.797 1626.73 678.67C1625.92 682.466 1625.66 686.36 1625.96 690.23C1626.35 694.212 1627.28 698.124 1628.71 701.86C1625.87 698.692 1623.91 694.844 1623 690.69C1622.11 686.479 1622.11 682.131 1623 677.92C1623.89 673.8 1625.33 669.821 1627.29 666.09C1629.2 662.427 1631.41 658.928 1633.9 655.63Z" fill="#1F4168"/>
<path d="M1594.45 460.23C1596.44 477.075 1599.5 493.776 1603.62 510.23C1607.62 526.666 1612.67 542.826 1618.75 558.61C1620.37 562.51 1621.9 566.45 1623.57 570.32C1625.24 574.19 1626.99 578.01 1628.8 581.87C1630.61 585.73 1632.36 589.64 1633.93 593.63C1635.5 597.62 1637.01 601.63 1638.23 605.76C1640.7 613.97 1642.46 622.62 1641.92 631.34C1641.38 640.06 1638.04 648.29 1633.92 655.64C1635.5 651.725 1636.83 647.717 1637.92 643.64C1638.93 639.594 1639.44 635.44 1639.43 631.27C1639.43 622.97 1637.43 614.79 1634.79 606.85C1632.07 598.888 1628.92 591.08 1625.35 583.46L1620.15 571.78C1618.46 567.86 1616.99 563.85 1615.41 559.88C1609.48 543.887 1604.74 527.475 1601.24 510.78C1600.3 506.63 1599.6 502.42 1598.79 498.25C1597.98 494.08 1597.41 489.85 1596.85 485.63C1595.75 477.18 1594.78 468.72 1594.45 460.23Z" fill="#1F4168"/>
<path d="M1671.11 550.31C1667.31 551.443 1663.28 551.621 1659.39 550.83C1655.46 550.103 1651.68 548.71 1648.22 546.71C1644.81 544.668 1641.74 542.119 1639.1 539.15C1637.8 537.679 1636.61 536.125 1635.51 534.5C1634.49 532.839 1633.57 531.123 1632.74 529.36C1634.25 530.62 1635.56 532 1636.95 533.29L1639.07 535.17C1639.74 535.817 1640.44 536.428 1641.18 537C1644.01 539.361 1647.02 541.503 1650.18 543.41C1656.58 547.181 1663.72 549.534 1671.11 550.31Z" fill="#1F4168"/>
<path d="M1493.82 425.68C1502.15 430.184 1510.14 435.305 1517.71 441C1525.37 446.678 1532.41 453.15 1538.71 460.31C1545.01 467.531 1550.16 475.672 1554 484.45C1557.79 493.202 1560.09 502.522 1560.83 512.03C1558.64 502.93 1555.44 494.102 1551.29 485.71C1547.09 477.451 1541.87 469.745 1535.77 462.77C1529.62 455.769 1522.93 449.256 1515.77 443.29C1508.72 437.22 1501.27 431.5 1493.82 425.68Z" fill="#1F4168"/>
<path d="M1424.83 392.41C1424.18 387.196 1424.04 381.931 1424.41 376.69C1424.58 374.032 1425 371.396 1425.68 368.82C1426.43 366.27 1427.46 363.56 1429.82 361.65C1431.02 360.705 1432.5 360.169 1434.03 360.12C1435.49 360.089 1436.94 360.355 1438.3 360.9C1440.84 361.905 1443.26 363.207 1445.49 364.78C1450.02 367.92 1453.49 372.4 1456.2 376.96C1458.91 381.52 1461.2 386.29 1463.62 390.84C1464.84 393.12 1466.12 395.34 1467.5 397.5C1468.88 399.66 1470.28 401.81 1471.82 403.86C1477.93 412.1 1485.56 419.21 1493.82 425.68C1484.4 420.767 1476.03 414.05 1469.2 405.91C1465.82 401.785 1462.84 397.345 1460.31 392.65C1457.69 388.05 1455.57 383.24 1453.02 378.81C1450.7 374.344 1447.55 370.363 1443.74 367.08C1441.8 365.517 1439.68 364.175 1437.44 363.08C1435.25 362.08 1432.82 361.9 1431 363.27C1429.18 364.64 1428 366.94 1427.14 369.27C1426.34 371.717 1425.78 374.235 1425.47 376.79C1424.84 381.971 1424.63 387.195 1424.83 392.41Z" fill="#1F4168"/>
<path d="M1502.49 352.3C1504.62 355.126 1507.13 357.635 1509.97 359.75C1511.32 360.85 1512.78 361.83 1514.22 362.81C1515.66 363.79 1517.13 364.73 1518.7 365.52C1524.82 368.905 1531.28 371.634 1537.97 373.66C1541.25 374.88 1544.71 375.59 1548.08 376.56C1551.45 377.53 1554.96 378.06 1558.4 378.88L1568.86 380.75C1572.37 381.27 1575.86 381.75 1579.43 382.47C1575.85 382.63 1572.27 382.62 1568.68 382.62C1565.09 382.62 1561.52 382.15 1557.93 381.83C1554.34 381.51 1550.81 380.77 1547.27 380.1C1543.77 379.21 1540.27 378.5 1536.79 377.3C1535.08 376.69 1533.34 376.21 1531.66 375.5L1526.66 373.4C1523.37 371.841 1520.19 370.056 1517.15 368.06C1515.62 367.06 1514.15 365.92 1512.75 364.83C1511.35 363.74 1509.99 362.45 1508.75 361.14C1506.13 358.609 1504.01 355.611 1502.49 352.3Z" fill="#1F4168"/>
<path d="M1414.54 808.8C1430.31 808.288 1442.68 795.088 1442.17 779.318C1441.66 763.547 1428.46 751.178 1412.69 751.69C1396.92 752.202 1384.55 765.402 1385.06 781.172C1385.57 796.943 1398.77 809.312 1414.54 808.8Z" fill="#FF9A6C"/>
<path d="M1442 784.15C1441.86 786.438 1441.42 788.697 1440.69 790.87C1439.92 793.056 1438.89 795.142 1437.62 797.08C1435.02 800.987 1431.48 804.172 1427.32 806.339C1423.16 808.506 1418.52 809.583 1413.83 809.47C1411.51 809.385 1409.21 809.029 1406.98 808.41C1404.78 807.754 1402.68 806.812 1400.73 805.61C1402.81 806.465 1404.98 807.095 1407.2 807.49C1409.38 807.92 1411.6 808.088 1413.82 807.99C1418.22 807.817 1422.53 806.673 1426.44 804.64C1430.35 802.607 1433.76 799.735 1436.43 796.23C1439.12 792.64 1441.01 788.523 1442 784.15Z" fill="#E3405A"/>
<path d="M1392.33 495.09C1394.27 494.087 1396.3 493.27 1398.4 492.65C1399.61 492.326 1400.87 492.263 1402.1 492.466C1403.34 492.668 1404.51 493.131 1405.55 493.824C1406.6 494.516 1407.48 495.423 1408.14 496.482C1408.8 497.542 1409.23 498.731 1409.4 499.97C1409.65 502.141 1409.69 504.331 1409.52 506.51C1408.53 504.586 1407.71 502.579 1407.07 500.51C1406.48 498.815 1405.35 497.361 1403.85 496.368C1402.35 495.375 1400.57 494.898 1398.78 495.01C1396.64 495.224 1394.48 495.251 1392.33 495.09Z" fill="#FF9A6C"/>
<path d="M1415.11 505.38C1414.11 503.439 1413.3 501.406 1412.68 499.31C1412.35 498.103 1412.29 496.84 1412.49 495.606C1412.69 494.372 1413.15 493.194 1413.84 492.153C1414.53 491.112 1415.44 490.23 1416.5 489.567C1417.56 488.904 1418.75 488.476 1419.99 488.31C1422.16 488.06 1424.35 488.02 1426.53 488.19C1424.61 489.179 1422.6 489.996 1420.53 490.63C1418.84 491.228 1417.38 492.362 1416.39 493.86C1415.4 495.357 1414.92 497.137 1415.03 498.93C1415.25 501.074 1415.27 503.232 1415.11 505.38Z" fill="#FF9A6C"/>
<path d="M1402.58 472.09C1403.58 474.031 1404.4 476.064 1405.02 478.16C1405.35 479.368 1405.41 480.631 1405.21 481.865C1405.01 483.099 1404.54 484.276 1403.85 485.317C1403.16 486.359 1402.25 487.24 1401.19 487.903C1400.13 488.565 1398.94 488.994 1397.7 489.16C1395.53 489.42 1393.34 489.46 1391.16 489.28C1393.08 488.291 1395.09 487.474 1397.16 486.84C1398.85 486.246 1400.31 485.115 1401.3 483.619C1402.3 482.122 1402.77 480.342 1402.66 478.55C1402.45 476.403 1402.42 474.242 1402.58 472.09Z" fill="#FF9A6C"/>
<path d="M1425.36 482.38C1423.42 483.384 1421.39 484.201 1419.29 484.82C1418.08 485.145 1416.82 485.21 1415.59 485.008C1414.35 484.806 1413.17 484.344 1412.13 483.651C1411.09 482.958 1410.21 482.051 1409.55 480.99C1408.88 479.929 1408.46 478.74 1408.29 477.5C1408.03 475.333 1407.99 473.145 1408.17 470.97C1409.16 472.893 1409.98 474.901 1410.61 476.97C1411.2 478.665 1412.33 480.119 1413.83 481.112C1415.33 482.105 1417.11 482.582 1418.9 482.47C1421.05 482.252 1423.21 482.222 1425.36 482.38Z" fill="#FF9A6C"/>
<g style="mix-blend-mode:multiply" opacity="0.4">
<path d="M1569.93 997.45C1569.93 997.45 1591.58 1014.04 1628.08 1026.53C1628.08 1026.53 1555.2 1008.18 1513.77 1038.42C1513.77 1038.42 1535.29 1009.59 1569.93 997.45Z" fill="#A65B3C"/>
</g>
<g style="mix-blend-mode:multiply" opacity="0.4">
<path d="M1308.55 1083.25C1308.55 1083.25 1291.65 1063.07 1273.93 1055.39C1272.22 1066.1 1269.4 1076.61 1265.52 1086.74C1265.52 1086.74 1282.72 1060 1308.55 1083.25Z" fill="#A65B3C"/>
</g>
<g style="mix-blend-mode:multiply" opacity="0.4">
<path d="M1283.73 1627.58L1256.96 1852.58H1151.67L1155.77 1738.3C1162.33 1425.02 1260.9 1304.85 1306.46 1113.76C1310.2 1097.98 1317.66 1083.33 1328.22 1071.02C1245.6 1310.87 1283.73 1627.58 1283.73 1627.58Z" fill="#A65B3C"/>
</g>
<g style="mix-blend-mode:multiply" opacity="0.4">
<path d="M1688.7 1541.41C1688.7 1541.41 1673.7 1443.8 1628.13 1404.99C1628.13 1405 1727.14 1488.84 1688.7 1541.41Z" fill="#A65B3C"/>
</g>
<g style="mix-blend-mode:multiply" opacity="0.4">
<path d="M1619.29 1392.4C1619.29 1392.4 1682.43 1372.49 1743.51 1396.68C1743.51 1396.68 1653.3 1350 1619.29 1392.4Z" fill="#A65B3C"/>
</g>
<g style="mix-blend-mode:multiply" opacity="0.4">
<path d="M1791.24 1590.46C1684.97 1702.71 1642.24 1702.52 1632.32 1700.21C1739.69 1735.4 1844.5 1558.21 1844.5 1558.21C1821 1590.61 1791.24 1590.46 1791.24 1590.46Z" fill="#A65B3C"/>
</g>
<g style="mix-blend-mode:multiply" opacity="0.4">
<path d="M1632.32 1700.21C1631.52 1699.95 1630.72 1699.68 1629.92 1699.39C1630.68 1699.77 1631.49 1700.05 1632.32 1700.21Z" fill="#A65B3C"/>
</g>
<g style="mix-blend-mode:multiply" opacity="0.4">
<path d="M1192.43 1460.56L1189.69 1260.84C1189.69 1260.84 1163.12 1392.33 1171.94 1472.05C1171.94 1472.05 1176.77 1475.54 1185.6 1488.18L1192.43 1460.56Z" fill="#A65B3C"/>
</g>
<g style="mix-blend-mode:multiply" opacity="0.4">
<path d="M1356.92 1852.62H1257L1283.77 1627.62C1283.77 1627.62 1274.99 1554.62 1274.99 1452.24C1274.99 1364.96 1281.38 1256.3 1304.99 1153.24C1304.74 1157.62 1240 1350.74 1356.92 1852.62Z" fill="#1F4168"/>
</g>
<path d="M1678.37 1037.85C1668.62 1037.21 1658.95 1035.76 1649.44 1033.52C1647.06 1032.95 1644.68 1032.42 1642.32 1031.78L1635.25 1029.78C1630.59 1028.31 1625.92 1026.85 1621.35 1025.12L1617.91 1023.85C1616.77 1023.41 1615.65 1022.92 1614.51 1022.46C1612.26 1021.46 1609.99 1020.61 1607.75 1019.62C1603.35 1017.48 1598.85 1015.56 1594.61 1013.12C1585.98 1008.53 1577.73 1003.28 1569.93 997.4C1578.14 1002.61 1586.62 1007.4 1595.32 1011.74C1599.62 1013.99 1604.1 1015.87 1608.51 1017.89L1615.24 1020.64C1616.37 1021.1 1617.48 1021.58 1618.62 1022L1622.04 1023.24C1631.13 1026.63 1640.4 1029.55 1649.8 1031.96C1659.2 1034.46 1668.74 1036.43 1678.37 1037.85Z" fill="#A65B3C"/>
<path d="M1715.56 882.26C1715.37 885.593 1715.11 888.927 1714.79 892.26C1714.47 895.593 1714.14 898.927 1713.79 902.26C1713.03 908.91 1712.13 915.55 1711.16 922.18C1709.16 935.44 1706.63 948.6 1703.78 961.7L1701.44 971.48C1700.64 974.73 1699.73 977.96 1698.88 981.2L1697.58 986.06L1696.15 990.88C1695.15 994.09 1694.27 997.32 1693.15 1000.49L1689.88 1010L1689.07 1012.38L1688.16 1014.72L1686.34 1019.41C1685.1 1022.53 1683.91 1025.66 1682.48 1028.69C1681.05 1031.72 1679.73 1034.8 1678.33 1037.84C1680.69 1031.56 1683.38 1025.44 1685.42 1019.07L1687.1 1014.35L1687.94 1011.99L1688.69 1009.59L1691.69 1000.03C1695.45 987.21 1698.96 974.32 1701.8 961.26C1704.8 948.26 1707.32 935.11 1709.62 921.94C1710.77 915.353 1711.82 908.75 1712.79 902.13C1713.87 895.53 1714.72 888.9 1715.56 882.26Z" fill="#A65B3C"/>
<path d="M1597.4 1385.24C1607.4 1356.82 1618.65 1328.82 1630.4 1301.07C1642.15 1273.32 1654.87 1245.96 1668.08 1218.85L1678.21 1198.63L1688.72 1178.63C1690.5 1175.31 1692.18 1171.94 1694.03 1168.63L1699.51 1158.74L1704.99 1148.85L1707.75 1143.91C1708.67 1142.27 1709.66 1140.66 1710.61 1139.04C1725.67 1112.91 1741.98 1087.51 1759.31 1062.86L1747 1081.77L1743.9 1086.49C1742.9 1088.06 1741.83 1089.64 1740.9 1091.26L1735.02 1100.91L1729.11 1110.53C1727.11 1113.73 1725.11 1116.93 1723.3 1120.22L1712 1139.79C1711.07 1141.43 1710.1 1143.04 1709.2 1144.69L1706.5 1149.69L1701.07 1159.59L1695.64 1169.49C1693.81 1172.78 1692.14 1176.16 1690.38 1179.49L1679.96 1199.49L1669.96 1219.72C1656.62 1246.72 1643.96 1274.08 1631.89 1301.72C1628.89 1308.63 1625.89 1315.52 1622.89 1322.46C1619.89 1329.4 1617 1336.32 1614.18 1343.3C1608.35 1357.17 1602.8 1371.17 1597.4 1385.24Z" fill="#A65B3C"/>
<path d="M1783.18 1563.51C1782.5 1560.86 1781.72 1558.24 1780.89 1555.64C1780.48 1554.34 1780.07 1553.04 1779.62 1551.74C1779.17 1550.44 1778.76 1549.15 1778.29 1547.87C1776.49 1542.71 1774.49 1537.62 1772.36 1532.6C1768.14 1522.53 1763.35 1512.71 1758 1503.19C1747.29 1484.19 1734.55 1466.3 1719.32 1450.71C1717.49 1448.71 1715.48 1446.85 1713.54 1444.94L1710.61 1442.1C1709.61 1441.15 1708.61 1440.29 1707.61 1439.38C1705.55 1437.6 1703.61 1435.74 1701.44 1434.02L1695 1429C1694 1428.12 1692.82 1427.35 1691.71 1426.57L1688.38 1424.2L1685.05 1421.84C1683.92 1421.09 1682.76 1420.38 1681.61 1419.65C1679.3 1418.21 1677.02 1416.71 1674.68 1415.33L1667.55 1411.33C1665.2 1409.93 1662.71 1408.83 1660.27 1407.62L1656.59 1405.84L1654.75 1404.95L1652.86 1404.16L1645.3 1401.04L1643.41 1400.26L1641.48 1399.59L1637.61 1398.26L1633.74 1396.91L1631.81 1396.23C1631.16 1396.02 1630.5 1395.86 1629.81 1395.66L1621.92 1393.44C1619.31 1392.63 1616.63 1392.11 1613.92 1391.52L1605.92 1389.74C1627.63 1393.09 1648.66 1399.92 1668.2 1409.97L1675.45 1413.87C1677.83 1415.24 1680.13 1416.75 1682.45 1418.18C1683.61 1418.91 1684.79 1419.62 1685.94 1420.37L1689.31 1422.74L1692.68 1425.1C1693.81 1425.89 1694.94 1426.66 1696.01 1427.54L1702.49 1432.62C1704.63 1434.34 1706.65 1436.2 1708.74 1437.99C1709.74 1438.9 1710.83 1439.77 1711.83 1440.72L1714.83 1443.57C1716.83 1445.49 1718.83 1447.33 1720.69 1449.36C1728.31 1457.27 1735.35 1465.72 1741.75 1474.65C1748.19 1483.54 1754.05 1492.84 1759.27 1502.49C1769.71 1521.76 1778.14 1542.2 1783.18 1563.51Z" fill="#A65B3C"/>
<path d="M1762.75 1738.34C1771.08 1736.54 1779.31 1734.34 1787.44 1731.83C1795.57 1729.32 1803.63 1726.61 1811.55 1723.52C1827.44 1717.5 1842.7 1709.94 1857.11 1700.93C1871.45 1691.93 1884.69 1680.99 1895.31 1667.78C1906.11 1654.58 1913.43 1638.88 1916.6 1622.12C1915.99 1626.35 1915.12 1630.53 1913.99 1634.65C1910.47 1647.05 1904.54 1658.63 1896.52 1668.73C1895.23 1670.45 1893.84 1672.08 1892.52 1673.73C1891.2 1675.38 1889.67 1676.94 1888.17 1678.47C1885.17 1681.55 1882.09 1684.47 1878.84 1687.31C1872.35 1692.91 1865.47 1698.02 1858.23 1702.61C1850.96 1707.16 1843.44 1711.3 1835.7 1715C1828 1718.73 1820.12 1722.07 1812.09 1725C1796.08 1730.93 1779.57 1735.39 1762.75 1738.34Z" fill="#A65B3C"/>
<path d="M1348.68 1532.73C1354.09 1544.33 1359.85 1555.76 1365.96 1567.01C1372.07 1578.26 1378.38 1589.4 1384.87 1600.42C1391.46 1611.42 1398.2 1622.26 1405.25 1632.93C1412.3 1643.6 1419.63 1654.08 1427.25 1664.38C1434.87 1674.68 1442.66 1684.79 1450.82 1694.63C1458.98 1704.47 1467.51 1714 1476.26 1723.32C1493.82 1741.95 1512.94 1759.04 1533.43 1774.4C1528.26 1770.63 1522.95 1767.02 1517.98 1762.98L1514.2 1759.98C1512.93 1758.98 1511.66 1757.98 1510.45 1756.98L1503.09 1750.8C1501.85 1749.8 1500.66 1748.7 1499.48 1747.63L1495.91 1744.4C1493.53 1742.26 1491.14 1740.12 1488.85 1737.87L1481.91 1731.22L1475.15 1724.37C1466.2 1715.18 1457.63 1705.65 1449.42 1695.78C1441.19 1685.94 1433.23 1675.88 1425.64 1665.54C1410.49 1644.84 1396.45 1623.36 1383.58 1601.17C1370.61 1579.06 1358.95 1556.21 1348.68 1532.73Z" fill="#1B1A2E"/>
<path d="M1354.6 1006.81C1356.46 1011.29 1358.46 1015.7 1360.6 1020.04C1361.67 1022.22 1362.79 1024.37 1363.89 1026.52L1367.35 1032.9C1372.06 1041.35 1377.23 1049.54 1382.84 1057.42C1385.56 1061.42 1388.59 1065.19 1391.53 1069.02C1393.04 1070.9 1394.63 1072.73 1396.18 1074.58L1398.52 1077.36L1401 1080L1405.93 1085.32L1411.13 1090.39C1411.99 1091.23 1412.84 1092.11 1413.72 1092.93L1416.46 1095.33C1418.29 1096.91 1420.11 1098.52 1421.92 1100.15C1419.97 1098.69 1418.04 1097.22 1416.12 1095.73L1413.23 1093.5C1412.29 1092.73 1411.39 1091.91 1410.47 1091.11L1405.01 1086.25C1403.27 1084.55 1401.58 1082.79 1399.86 1081.07L1397.29 1078.46L1394.88 1075.72C1393.28 1073.88 1391.65 1072.07 1390.08 1070.2C1387.08 1066.36 1384 1062.57 1381.23 1058.55C1375.58 1050.6 1370.49 1042.27 1366 1033.62C1361.47 1025.01 1357.66 1016.05 1354.6 1006.81Z" fill="#1B1A2E"/>
<path d="M1421.93 1100.17C1427.57 1097.83 1433.14 1095.38 1438.69 1092.91C1444.24 1090.44 1449.69 1087.83 1455.17 1085.12L1459.24 1083.12L1463.24 1081C1464.59 1080.32 1465.92 1079.58 1467.24 1078.84C1468.56 1078.1 1469.91 1077.4 1471.24 1076.64C1473.86 1075.11 1476.51 1073.64 1479.08 1071.99C1481.65 1070.34 1484.18 1068.7 1486.79 1067.1C1482.15 1071.08 1477.22 1074.72 1472.04 1077.98C1466.86 1081.25 1461.52 1084.25 1456.04 1086.98C1450.55 1089.68 1444.97 1092.19 1439.27 1094.41C1433.6 1096.64 1427.81 1098.57 1421.93 1100.17Z" fill="#1B1A2E"/>
<path d="M1688.7 1541.41C1687.37 1534.08 1685.81 1526.8 1684.02 1519.58C1682.27 1512.35 1680.33 1505.17 1678.14 1498.07C1675.95 1490.97 1673.64 1483.91 1671.04 1476.95C1668.44 1469.99 1665.56 1463.15 1662.42 1456.43C1659.35 1449.68 1655.91 1443.11 1652.11 1436.74C1650.27 1433.52 1648.19 1430.46 1646.16 1427.36C1644.13 1424.26 1641.89 1421.3 1639.56 1418.43C1630.51 1406.61 1619.07 1396.82 1606 1389.7C1612.77 1392.87 1619.12 1396.86 1624.93 1401.57C1630.71 1406.33 1636.01 1411.65 1640.75 1417.46C1641.92 1418.92 1643.18 1420.31 1644.27 1421.84L1647.58 1426.37C1649.66 1429.49 1651.78 1432.57 1653.67 1435.8C1657.55 1442.2 1661.08 1448.8 1664.23 1455.59C1670.44 1469.18 1675.59 1483.24 1679.61 1497.64C1683.72 1511.99 1686.76 1526.62 1688.7 1541.41Z" fill="#A65B3C"/>
<path d="M1786.66 1418.61C1780.66 1414.51 1774.36 1410.85 1767.82 1407.68C1761.32 1404.45 1754.64 1401.58 1747.82 1399.09C1734.21 1394.05 1720.12 1390.46 1705.76 1388.37C1702.18 1387.77 1698.57 1387.37 1694.98 1386.98C1691.37 1386.7 1687.76 1386.33 1684.13 1386.22C1680.5 1386.11 1676.89 1386.01 1673.27 1385.98C1671.45 1385.98 1669.64 1386.07 1667.83 1386.09C1666.02 1386.11 1664.2 1386.09 1662.39 1386.27C1658.77 1386.5 1655.15 1386.66 1651.54 1387.09C1649.74 1387.28 1647.93 1387.43 1646.12 1387.66L1640.73 1388.42L1638.03 1388.78L1635.34 1389.24L1629.97 1390.18C1628.17 1390.46 1626.41 1390.92 1624.63 1391.28L1619.28 1392.4C1622.8 1391.48 1626.28 1390.47 1629.86 1389.66L1635.2 1388.5L1637.88 1387.93L1640.57 1387.45L1645.97 1386.54C1647.78 1386.27 1649.59 1386.07 1651.4 1385.83C1655.02 1385.31 1658.66 1385.06 1662.3 1384.74C1669.59 1384.2 1676.91 1384.09 1684.21 1384.4C1687.87 1384.48 1691.51 1384.82 1695.21 1385.08C1698.84 1385.49 1702.49 1385.81 1706.1 1386.39C1709.71 1386.97 1713.31 1387.63 1716.9 1388.32L1722.25 1389.52C1724.04 1389.92 1725.8 1390.42 1727.57 1390.86C1734.64 1392.71 1741.6 1394.99 1748.41 1397.66C1761.93 1403 1775.1 1409.7 1786.66 1418.61Z" fill="#A65B3C"/>
<path d="M1785.33 1026.64C1792.96 1015.21 1801.91 1004.72 1812 995.38C1817.01 990.663 1822.29 986.242 1827.82 982.14C1830.56 980.06 1833.41 978.14 1836.25 976.19L1840.61 973.42C1842.05 972.48 1843.61 971.66 1845.05 970.78C1851.03 967.363 1857.24 964.356 1863.63 961.78C1882.81 953.93 1903.55 950.68 1924.21 952.29C1917.37 952.134 1910.53 952.444 1903.74 953.22L1901.19 953.49C1900.35 953.57 1899.51 953.74 1898.67 953.87L1893.62 954.67L1888.62 955.74L1886.12 956.29L1883.66 956.96C1870.46 960.42 1857.79 965.651 1846 972.51C1834.16 979.286 1823.09 987.333 1813 996.51C1807.9 1001.05 1803 1005.86 1798.42 1010.89C1793.76 1015.88 1789.39 1021.14 1785.33 1026.64Z" fill="#A65B3C"/>
<path d="M1791.52 1590.18C1785.58 1597.01 1779.35 1603.58 1773.09 1610.12C1766.83 1616.66 1760.33 1622.97 1753.78 1629.23C1747.23 1635.49 1740.5 1641.55 1733.65 1647.49C1726.8 1653.43 1719.8 1659.19 1712.65 1664.73C1705.5 1670.27 1698.03 1675.48 1690.37 1680.37C1686.54 1682.81 1682.64 1685.14 1678.67 1687.37C1674.7 1689.59 1670.62 1691.61 1666.45 1693.42C1662.28 1695.27 1658 1696.83 1653.62 1698.1C1649.24 1699.4 1644.73 1700.21 1640.17 1700.51C1635.6 1700.82 1631 1700.24 1626.65 1698.8C1622.34 1697.29 1618.46 1694.74 1615.37 1691.38C1618.59 1694.56 1622.51 1696.93 1626.82 1698.3C1631.13 1699.56 1635.64 1699.97 1640.11 1699.53C1649.11 1698.8 1657.66 1695.74 1665.82 1692.02C1682.15 1684.43 1697.14 1674.16 1711.43 1663.18C1725.72 1652.2 1739.43 1640.36 1752.75 1628.18C1759.42 1622.07 1765.97 1615.85 1772.42 1609.5C1778.89 1603.14 1785.25 1596.7 1791.52 1590.18Z" fill="#A65B3C"/>
<path d="M1864.09 1492.64C1864.17 1503.77 1862.79 1514.87 1859.97 1525.64C1857.26 1536.53 1852.84 1546.91 1846.86 1556.4C1842.31 1563.51 1836.63 1569.83 1830.05 1575.12L1826.65 1577.61L1825.8 1578.23L1824.91 1578.78L1823.11 1579.89L1821.32 1580.98C1820.72 1581.35 1820.08 1581.63 1819.46 1581.98C1818.21 1582.61 1816.97 1583.27 1815.7 1583.87C1813.14 1584.99 1810.52 1585.98 1807.85 1586.82C1802.53 1588.48 1797.06 1589.59 1791.52 1590.15C1796.97 1589.22 1802.33 1587.79 1807.52 1585.89C1810.11 1584.95 1812.64 1583.88 1815.12 1582.68L1818.74 1580.68C1819.34 1580.34 1819.96 1580.04 1820.54 1579.68L1822.26 1578.55L1823.99 1577.43L1824.85 1576.87L1825.66 1576.24L1828.93 1573.75C1835.24 1568.46 1840.71 1562.24 1845.16 1555.31C1851.03 1545.98 1855.51 1535.84 1858.45 1525.22C1859.97 1519.91 1861.2 1514.52 1862.14 1509.07C1863.12 1503.64 1863.77 1498.15 1864.09 1492.64Z" fill="#A65B3C"/>
<path d="M1978.09 1253.68C1974.09 1263.97 1969.86 1274.18 1965.69 1284.4C1961.52 1294.62 1957.14 1304.77 1952.82 1314.94C1944.15 1335.25 1935.11 1355.41 1925.97 1375.52L1918.97 1390.52L1911.83 1405.52C1909.47 1410.52 1907.02 1415.52 1904.57 1420.42C1902.12 1425.32 1899.72 1430.34 1897.13 1435.23C1887.04 1454.87 1876.58 1474.42 1864.13 1492.67L1868.43 1485.58L1870.59 1482.05L1871.67 1480.29C1872.02 1479.7 1872.34 1479.09 1872.67 1478.48C1875.34 1473.65 1878.06 1468.86 1880.67 1463.99L1888.36 1449.34L1895.77 1434.53C1905.52 1414.73 1915.06 1394.82 1924.18 1374.72C1933.47 1354.72 1942.47 1334.53 1951.45 1314.36C1955.94 1304.27 1960.4 1294.17 1964.82 1284.05L1978.09 1253.68Z" fill="#A65B3C"/>
<path d="M1725.2 1011.68C1722.57 1017.9 1720.2 1024.22 1718.03 1030.6C1715.86 1036.98 1713.78 1043.4 1711.95 1049.89C1708.25 1062.84 1704.95 1075.89 1702.54 1089.18C1701.83 1092.47 1701.29 1095.79 1700.73 1099.12L1699.89 1104.12L1699.47 1106.61L1699.13 1109.11L1697.81 1119.11L1697.49 1121.61L1697.25 1124.13L1696.74 1129.13C1695.26 1142.53 1694.88 1156.02 1694.53 1169.53C1694.43 1166.15 1694.35 1162.78 1694.29 1159.4C1694.23 1156.02 1694.09 1152.63 1694.29 1149.26L1694.61 1139.12L1694.7 1136.58L1694.88 1134.05L1695.26 1128.99C1696.29 1115.49 1698.08 1102.06 1700.63 1088.77C1701.32 1085.46 1701.96 1082.13 1702.69 1078.83L1705 1069C1706.7 1062.45 1708.4 1055.9 1710.49 1049.46C1712.58 1043.02 1714.75 1036.62 1717.12 1030.29C1719.49 1023.96 1722.16 1017.71 1725.2 1011.68Z" fill="#A65B3C"/>
<path d="M1192.43 1117.62L1192.04 1160.12L1191.73 1202.61L1191.52 1245.1V1287.59V1330.08L1191.74 1372.57L1191.86 1393.82L1192.07 1415.07L1192.45 1457.56L1191.73 1436.32C1191.49 1429.25 1191.26 1422.16 1191.09 1415.08L1190.59 1393.84L1190.2 1372.59C1189.71 1344.26 1189.58 1315.93 1189.51 1287.59C1189.44 1259.25 1189.74 1230.92 1190.22 1202.59L1191.09 1160.1C1191.48 1145.94 1191.85 1131.78 1192.43 1117.62Z" fill="#A65B3C"/>
<path d="M1569.93 997.45C1562.51 1000.41 1555.41 1004.12 1548.75 1008.53L1546.25 1010.17C1545.42 1010.71 1544.62 1011.31 1543.8 1011.88C1542.19 1013.05 1540.53 1014.15 1539 1015.43C1537.47 1016.71 1535.84 1017.84 1534.33 1019.13L1529.82 1023.05C1528.32 1024.35 1526.93 1025.78 1525.48 1027.14L1523.33 1029.21C1522.63 1029.92 1521.97 1030.67 1521.33 1031.38L1517.24 1035.73L1513.39 1040.31L1511.46 1042.59C1510.81 1043.35 1510.26 1044.18 1509.64 1044.97L1506.03 1049.75C1503.63 1052.94 1501.55 1056.36 1499.21 1059.63C1500.21 1057.88 1501.15 1056.12 1502.15 1054.38L1503.65 1051.77L1504.39 1050.45L1505.22 1049.19L1508.59 1044.19C1509.16 1043.36 1509.69 1042.5 1510.31 1041.71L1512.17 1039.33C1513.41 1037.74 1514.65 1036.15 1515.91 1034.58L1519.91 1030.09C1520.59 1029.34 1521.26 1028.58 1521.91 1027.86L1524.07 1025.75C1525.54 1024.36 1526.93 1022.89 1528.45 1021.57C1534.45 1016.17 1540.96 1011.36 1547.89 1007.21C1554.76 1002.98 1562.18 999.698 1569.93 997.45Z" fill="#A65B3C"/>
<path d="M1498.2 1064.44C1495.36 1080.44 1493.71 1096.67 1492.41 1112.88L1491.94 1118.96L1491.56 1125.05C1491.34 1129.11 1491.02 1133.16 1490.88 1137.23L1490.36 1149.41L1490.06 1161.6L1489.91 1167.7L1489.86 1173.8L1489.76 1185.99L1489.88 1198.19C1489.88 1202.25 1489.94 1206.32 1490.09 1210.38C1490.36 1218.51 1490.47 1226.64 1490.94 1234.76C1491.41 1242.88 1491.67 1251 1492.29 1259.11C1494.45 1291.56 1497.76 1323.89 1502.21 1356.11C1506.74 1388.31 1512.45 1420.34 1519.01 1452.19L1524.14 1476.03C1524.95 1480.03 1525.94 1483.96 1526.88 1487.91L1529.7 1499.78L1532.53 1511.64C1533.46 1515.64 1534.53 1519.51 1535.53 1523.45L1541.71 1547.04C1550.47 1578.36 1559.71 1609.55 1570.17 1640.36L1574.04 1651.92C1575.35 1655.77 1576.56 1659.65 1577.98 1663.46L1586.26 1686.46L1590.4 1697.94C1591.8 1701.76 1593.31 1705.53 1594.77 1709.33L1603.57 1732.08C1606.41 1739.71 1609.62 1747.18 1612.69 1754.71L1621.98 1777.28C1623.48 1781.06 1625.2 1784.74 1626.81 1788.48L1631.72 1799.65L1641.54 1821.99L1631.54 1799.75L1626.54 1788.62C1624.89 1784.91 1623.13 1781.24 1621.54 1777.47L1612.02 1754.99C1608.87 1747.49 1605.59 1739.99 1602.67 1732.45L1593.67 1709.73C1592.2 1705.94 1590.67 1702.17 1589.24 1698.36L1585.03 1686.9L1576.7 1664C1575.26 1660.2 1574.03 1656.32 1572.7 1652.47L1568.76 1640.92C1558.07 1610.17 1548.86 1578.92 1540.01 1547.59L1533.77 1523.98C1532.77 1520.04 1531.64 1516.13 1530.71 1512.17L1527.86 1500.29L1525 1488.42C1524.06 1484.42 1523.06 1480.52 1522.24 1476.53L1517.07 1452.66C1510.56 1420.76 1504.89 1388.66 1500.42 1356.43C1495.95 1324.2 1492.7 1291.75 1490.77 1259.24C1490.19 1251.12 1489.91 1242.99 1489.56 1234.86C1489.21 1226.73 1489.07 1218.58 1488.84 1210.45C1488.71 1206.38 1488.72 1202.31 1488.7 1198.24V1186.03L1488.86 1173.82L1488.95 1167.72L1489.14 1161.62L1489.57 1149.42L1490.21 1137.23C1490.39 1133.16 1490.75 1129.11 1491.01 1125.05L1491.45 1118.96L1491.99 1112.88C1493.39 1096.63 1495.2 1080.44 1498.2 1064.44Z" fill="#A65B3C"/>
<path d="M1307.4 1110.24C1295.74 1163.17 1278.17 1214.61 1259.1 1265.24L1244.64 1303.24C1239.8 1315.91 1235.07 1328.57 1230.44 1341.24C1221.15 1366.67 1212.65 1392.37 1204.94 1418.32C1189.54 1470.21 1177.82 1523.12 1169.87 1576.66C1165.97 1603.43 1162.86 1630.3 1160.55 1657.27L1158.99 1677.5C1158.7 1680.88 1158.52 1684.25 1158.33 1687.63L1157.74 1697.76L1157.15 1707.9C1156.95 1711.27 1156.86 1714.66 1156.7 1718.04L1155.87 1738.32H1155.67C1156.06 1711.25 1157 1684.17 1158.99 1657.15C1160.98 1630.13 1163.89 1603.15 1167.83 1576.36C1175.7 1522.71 1187.76 1469.77 1203.89 1418C1204.89 1414.76 1205.89 1411.54 1206.89 1408.31L1209.99 1398.64L1216.37 1379.36L1222.99 1360.16L1229.75 1341.01L1243.56 1302.81L1257.56 1264.67L1264.56 1245.61L1271.43 1226.51C1273.67 1220.12 1275.99 1213.77 1278.14 1207.36L1281.42 1197.75C1282.52 1194.55 1283.54 1191.33 1284.6 1188.12C1293.05 1162.41 1300.72 1136.45 1307.24 1110.12L1307.4 1110.24Z" fill="#A65B3C"/>
<path d="M1273.93 1055.39C1277.48 1056.64 1280.88 1058.28 1284.07 1060.28C1287.28 1062.24 1290.35 1064.41 1293.27 1066.79C1296.17 1069.18 1298.92 1071.75 1301.49 1074.5C1302.81 1075.84 1303.98 1077.31 1305.2 1078.73C1306.42 1080.15 1307.48 1081.73 1308.55 1083.25C1307.14 1082 1305.84 1080.67 1304.48 1079.4C1303.12 1078.13 1301.79 1076.83 1300.39 1075.61C1299.7 1074.99 1299.01 1074.37 1298.34 1073.74L1296.24 1071.92C1294.87 1070.67 1293.42 1069.52 1292.01 1068.33C1289.15 1065.98 1286.21 1063.75 1283.21 1061.57C1280.21 1059.39 1277.14 1057.33 1273.93 1055.39Z" fill="#A65B3C"/>
<path d="M1273.93 1055.39C1273.66 1060.21 1272.99 1065.01 1271.93 1069.72C1270.88 1074.44 1269.51 1079.09 1267.85 1083.64C1266.14 1088.18 1264.05 1092.57 1261.6 1096.77C1259.11 1100.94 1256.09 1104.76 1252.6 1108.13C1255.45 1104.29 1258.01 1100.24 1260.25 1096.01C1262.39 1091.76 1264.31 1087.4 1265.99 1082.94C1267.65 1078.48 1269.1 1073.94 1270.43 1069.34C1271.76 1064.74 1272.87 1060.09 1273.93 1055.39Z" fill="#A65B3C"/>
<path d="M1370.87 938.25C1364.12 944.25 1357.29 950.25 1350.5 956.25L1330 974C1323.18 980 1316.27 985.81 1309.4 991.71L1299.09 1000.54C1295.65 1003.49 1292.18 1006.42 1288.9 1009.44C1275.73 1021.78 1266.02 1037.36 1260.76 1054.63L1259.76 1057.86C1259.47 1058.94 1259.22 1060.04 1258.95 1061.13C1258.36 1063.3 1258.02 1065.53 1257.58 1067.73C1257.36 1068.84 1257.25 1069.96 1257.08 1071.07C1256.91 1072.18 1256.73 1073.3 1256.66 1074.42C1256.47 1076.66 1256.26 1078.9 1256.13 1081.17C1255.8 1085.69 1255.38 1090.17 1254.82 1094.7C1254.3 1099.21 1253.53 1103.68 1252.52 1108.1C1254.01 1099.17 1254.89 1090.15 1255.15 1081.1C1255.22 1078.85 1255.4 1076.58 1255.54 1074.31C1255.54 1073.17 1255.78 1072.04 1255.9 1070.91C1256.02 1069.78 1256.13 1068.64 1256.33 1067.52C1256.73 1065.28 1257.04 1063.02 1257.58 1060.81C1257.84 1059.7 1258.07 1058.58 1258.34 1057.47L1259.26 1054.18L1259.72 1052.53L1260.26 1050.91L1261.34 1047.66L1262.6 1044.48C1263.01 1043.42 1263.44 1042.36 1263.93 1041.33L1265.36 1038.22C1265.86 1037.22 1266.36 1036.22 1266.92 1035.22C1267.92 1033.22 1269.15 1031.22 1270.29 1029.22C1275.09 1021.44 1280.88 1014.3 1287.5 1007.99C1290.89 1004.9 1294.36 1001.99 1297.82 999.09L1308.19 990.33C1315.12 984.49 1322 978.61 1328.97 972.84L1349.84 955.45C1356.87 949.74 1363.83 944 1370.87 938.25Z" fill="#A65B3C"/>
<path d="M1113.8 1462.24C1120.29 1459.76 1127.15 1458.39 1134.09 1458.18C1141.09 1457.92 1148.08 1458.91 1154.74 1461.1C1158.05 1462.26 1161.24 1463.73 1164.28 1465.48C1167.28 1467.28 1170.11 1469.36 1172.71 1471.69C1177.82 1476.41 1182.06 1481.99 1185.23 1488.18C1181.44 1482.48 1176.89 1477.33 1171.69 1472.87C1169.07 1470.72 1166.28 1468.79 1163.33 1467.12C1160.38 1465.47 1157.29 1464.09 1154.09 1462.99C1147.64 1460.86 1140.89 1459.76 1134.09 1459.74C1130.68 1459.71 1127.27 1459.91 1123.88 1460.33C1120.48 1460.71 1117.11 1461.35 1113.8 1462.24Z" fill="#A65B3C"/>
<path d="M642.24 1261.44C642.24 1261.44 591.49 1217.36 614.32 1197.77C642.15 1173.9 671 1248.66 671 1248.66L702.36 1286.38L663.7 1315.53L642.24 1261.44Z" fill="#FFC89F"/>
<path d="M711.94 1370.27C708.361 1370.27 704.836 1369.41 701.662 1367.75C698.489 1366.1 695.761 1363.7 693.71 1360.77L528.91 1125C528.397 1124.25 528.097 1123.38 528.041 1122.48C527.986 1121.57 528.177 1120.67 528.595 1119.86C529.013 1119.06 529.642 1118.38 530.415 1117.91C531.187 1117.43 532.074 1117.18 532.98 1117.17C536.559 1117.17 540.085 1118.03 543.259 1119.69C546.432 1121.34 549.16 1123.74 551.21 1126.67L716 1362.45C716.51 1363.2 716.808 1364.07 716.862 1364.97C716.917 1365.87 716.726 1366.77 716.309 1367.57C715.892 1368.38 715.266 1369.05 714.497 1369.53C713.728 1370 712.844 1370.26 711.94 1370.27Z" fill="#1F4168"/>
<path d="M1069.27 1514.18C1069.27 1514.18 1168.05 1561.26 1155.77 1738.34L1136.83 1728.1C1136.83 1728.1 963.74 1685.29 771.28 1551.73C768.304 1549.66 765.047 1548.03 761.61 1546.88L753.48 1544.17C744.722 1541.25 737.33 1535.23 732.69 1527.25C729.156 1521.16 723.997 1516.18 717.79 1512.86C704.79 1505.86 680.24 1490.57 659.56 1465.21C658.243 1463.61 656.618 1462.28 654.78 1461.32L648.63 1458.05C645.279 1456.27 642.701 1453.32 641.39 1449.76C640.075 1446.2 637.499 1443.25 634.15 1441.47L629.93 1439.23C627.162 1437.75 624.909 1435.47 623.47 1432.68L618.33 1422.68C617.041 1420.21 615.106 1418.14 612.73 1416.68L603.91 1411.23C601.672 1409.85 599.825 1407.92 598.544 1405.62C597.263 1403.33 596.59 1400.74 596.59 1398.11V1361.91L588.2 1301.8C587.776 1298.76 588.245 1295.67 589.55 1292.89C595.28 1280.7 612.55 1247.17 629.46 1246.89C650.11 1246.6 656.46 1280.18 630.62 1299.33L631.5 1314.16C631.5 1314.16 652.63 1303.66 659.82 1300.29C673.47 1293.88 700.14 1282.73 718.44 1286.59C738.18 1290.75 733.04 1310.2 733.04 1310.2C733.04 1310.2 783.22 1338.54 778.87 1425.53C778.87 1425.57 875.54 1508.91 1069.27 1514.18Z" fill="#FFC89F"/>
<path d="M1620.68 1684.18C1620.68 1684.18 1676.33 1510.28 1606 1389.7C1606 1389.7 1449 1310.81 1296.62 1181.23C1282.51 1169.2 1266.3 1159.88 1248.8 1153.76C1209.45 1140.08 1133.54 1116.39 1053.19 1105.94C1044.57 1104.8 1035.83 1106.77 1028.53 1111.48L960.36 1155.68L905.46 1182.46L859.69 1201.73C858.169 1202.37 856.824 1203.36 855.772 1204.63C854.719 1205.9 853.989 1207.41 853.645 1209.02C853.302 1210.63 853.353 1212.3 853.796 1213.89C854.24 1215.48 855.061 1216.94 856.19 1218.14C864.75 1227.14 882.57 1234.8 917.55 1213.95L965.93 1196.38L1002.21 1188.38C1002.21 1188.38 973.46 1250 1018.21 1261.18C1018.21 1261.18 1020.49 1274.64 1037.83 1280.8L1043.17 1288.97C1044.54 1291.07 1046.39 1292.83 1048.56 1294.1C1050.73 1295.36 1053.16 1296.11 1055.67 1296.27L1085.18 1298.16C1089.37 1298.43 1093.51 1297.05 1096.71 1294.33L1125.39 1269.87C1125.39 1269.87 1174.51 1282.44 1210.32 1262.07C1210.32 1262.07 1383.64 1534.67 1540.51 1625.36C1540.49 1625.37 1584.05 1681.72 1620.68 1684.18Z" fill="#FFC89F"/>
<path d="M1037.81 1280.81C1036.86 1275.14 1036.41 1269.41 1036.46 1263.66C1036.47 1257.91 1036.9 1252.16 1037.74 1246.47C1038.11 1243.61 1038.74 1240.81 1039.3 1237.99L1040.36 1233.8C1040.55 1233.11 1040.7 1232.4 1040.91 1231.72L1041.58 1229.66C1043.29 1224.17 1045.49 1218.85 1048.15 1213.76L1046.51 1217.76L1045.68 1219.76C1045.41 1220.43 1045.21 1221.11 1044.97 1221.76L1043.53 1225.76C1043.09 1227.11 1042.72 1228.5 1042.31 1229.86C1041.46 1232.59 1040.89 1235.39 1040.19 1238.16C1039.68 1240.97 1039.07 1243.76 1038.73 1246.59C1037.86 1252.24 1037.36 1257.94 1037.22 1263.65C1037.22 1265.08 1037.22 1266.51 1037.16 1267.94L1037.24 1272.23C1037.32 1275.1 1037.51 1277.96 1037.81 1280.81Z" fill="#FF9A6C"/>
<path d="M631.5 1314.2L625.18 1318.73L622 1321L618.9 1323.33C614.761 1326.4 610.957 1329.89 607.55 1333.76C604.148 1337.61 601.469 1342.03 599.64 1346.83C597.857 1351.68 596.819 1356.76 596.56 1361.92L596.66 1358.03C596.674 1357.38 596.727 1356.73 596.82 1356.09L597.06 1354.15C597.236 1352.86 597.486 1351.58 597.81 1350.32C598.097 1349.05 598.465 1347.8 598.91 1346.57C600.675 1341.63 603.351 1337.06 606.8 1333.1C610.276 1329.21 614.181 1325.73 618.44 1322.72C622.68 1319.66 627.07 1316.91 631.5 1314.2Z" fill="#FF9A6C"/>
<path d="M733 1310.24C731.98 1312.07 730.748 1313.78 729.33 1315.32C727.905 1316.86 726.392 1318.31 724.8 1319.68C721.6 1322.38 718.215 1324.86 714.67 1327.09C711.109 1329.31 707.438 1331.34 703.67 1333.18C701.78 1334.07 699.9 1334.97 697.97 1335.77C696.04 1336.57 694.1 1337.34 692.14 1338.06C694.01 1337.13 695.91 1336.29 697.76 1335.33C699.61 1334.37 701.48 1333.46 703.32 1332.49C706.99 1330.49 710.61 1328.49 714.11 1326.25C717.637 1324.06 721.033 1321.67 724.28 1319.09C727.61 1316.59 730.549 1313.61 733 1310.24Z" fill="#FF9A6C"/>
<path d="M1087.24 1268C1088.31 1267.85 1089.36 1267.64 1090.4 1267.35C1091.42 1267.09 1092.42 1266.77 1093.4 1266.4C1095.38 1265.66 1097.26 1264.68 1099 1263.48C1099.87 1262.87 1100.69 1262.2 1101.47 1261.48C1102.22 1260.74 1102.92 1259.96 1103.58 1259.13C1104.89 1257.44 1105.99 1255.6 1106.85 1253.64C1106.7 1254.16 1106.54 1254.64 1106.37 1255.19C1106.22 1255.72 1106.03 1256.23 1105.8 1256.73L1105.08 1258.2C1104.84 1258.69 1104.49 1259.12 1104.2 1259.59C1103.59 1260.51 1102.89 1261.37 1102.12 1262.16C1101.33 1262.92 1100.47 1263.63 1099.57 1264.26C1097.76 1265.51 1095.76 1266.47 1093.64 1267.09C1091.57 1267.74 1089.41 1268.05 1087.24 1268Z" fill="#FF9A6C"/>
<path d="M1210.3 1262.08C1209.64 1261.17 1209.07 1260.2 1208.5 1259.25C1207.93 1258.3 1207.43 1257.25 1206.94 1256.25C1204.97 1252.22 1203.48 1247.97 1202.51 1243.59C1202.01 1241.4 1201.68 1239.18 1201.51 1236.95C1201.82 1238.02 1202.02 1239.12 1202.34 1240.19C1202.66 1241.26 1202.89 1242.34 1203.22 1243.4C1203.84 1245.52 1204.5 1247.64 1205.22 1249.72C1205.94 1251.8 1206.74 1253.88 1207.56 1255.94C1208.38 1258 1209.36 1260.05 1210.3 1262.08Z" fill="#FF9A6C"/>
<path d="M1125.37 1269.88C1123.28 1269.88 1121.2 1269.65 1119.17 1269.17C1117.13 1268.72 1115.12 1268.13 1113.17 1267.39C1111.22 1266.65 1109.33 1265.78 1107.49 1264.8C1106.56 1264.33 1105.68 1263.8 1104.79 1263.24C1103.9 1262.68 1103.06 1262.09 1102.22 1261.48C1104.1 1262.36 1105.96 1263.26 1107.83 1264.1C1109.7 1264.94 1111.61 1265.72 1113.52 1266.46C1115.43 1267.2 1117.39 1267.84 1119.35 1268.46C1121.33 1269.04 1123.34 1269.51 1125.37 1269.88Z" fill="#FF9A6C"/>
<path d="M1087.24 1268C1084.24 1266.49 1081.53 1264.46 1079.24 1262C1078.06 1260.79 1077 1259.48 1076.06 1258.08C1075.11 1256.69 1074.32 1255.2 1073.71 1253.64C1074.71 1255 1075.64 1256.35 1076.71 1257.64C1077.78 1258.93 1078.83 1260.15 1079.98 1261.33C1081.13 1262.51 1082.3 1263.66 1083.52 1264.76C1084.74 1265.86 1085.93 1267 1087.24 1268Z" fill="#FF9A6C"/>
<path d="M1073.66 1290.06C1074.44 1289.28 1075.22 1288.5 1075.94 1287.67C1076.66 1286.84 1077.41 1286.04 1078.1 1285.2C1079.49 1283.52 1080.78 1281.76 1081.98 1279.93C1083.17 1278.11 1084.22 1276.2 1085.12 1274.22L1085.76 1272.71C1085.97 1272.21 1086.12 1271.71 1086.3 1271.17C1086.73 1270.17 1086.89 1269.06 1087.24 1268C1087.09 1270.23 1086.61 1272.42 1085.83 1274.51C1085.06 1276.62 1084.05 1278.63 1082.83 1280.51C1081.61 1282.38 1080.22 1284.13 1078.68 1285.75C1077.16 1287.36 1075.48 1288.8 1073.66 1290.06Z" fill="#FF9A6C"/>
<path d="M1018.19 1261.19C1017.52 1254.21 1017.24 1247.2 1017.37 1240.19C1017.47 1233.19 1017.96 1226.19 1018.7 1219.19C1019.49 1212.21 1020.67 1205.28 1022.23 1198.43C1023.81 1191.59 1025.9 1184.88 1028.48 1178.35L1026.9 1183.35C1026.64 1184.19 1026.36 1185.02 1026.12 1185.86L1025.45 1188.4C1025.01 1190.09 1024.52 1191.77 1024.11 1193.47L1022.99 1198.59C1021.54 1205.43 1020.44 1212.34 1019.69 1219.29C1018.88 1226.29 1018.4 1233.22 1018.14 1240.21L1018 1245.46C1018 1247.21 1018 1248.96 1018 1250.71C1017.94 1254.19 1018 1257.69 1018.19 1261.19Z" fill="#FF9A6C"/>
<path d="M1002.21 1188.39C1002.94 1186.48 1003.65 1184.57 1004.3 1182.63C1004.95 1180.69 1005.65 1178.78 1006.3 1176.84C1007.56 1172.96 1008.81 1169.07 1009.89 1165.14C1010.97 1161.21 1012.1 1157.29 1013.08 1153.33C1014.06 1149.37 1015 1145.4 1015.96 1141.42C1015.67 1143.42 1015.36 1145.42 1015.02 1147.48C1014.68 1149.54 1014.28 1151.48 1013.83 1153.48C1013 1157.48 1011.93 1161.48 1010.83 1165.39C1009.73 1169.3 1008.42 1173.22 1007 1177.06C1005.61 1180.92 1004.01 1184.7 1002.21 1188.39Z" fill="#FF9A6C"/>
<path d="M625.63 1406C625.229 1397.3 626.205 1388.6 628.52 1380.21C629.851 1376.01 632.11 1372.16 635.13 1368.95C636.629 1367.34 638.307 1365.91 640.13 1364.68C641.958 1363.49 643.862 1362.42 645.83 1361.47C653.54 1357.54 661.3 1353.69 668.99 1349.72C672.84 1347.72 676.68 1345.72 680.51 1343.72L686.25 1340.72C688.17 1339.72 690.04 1338.62 692.08 1337.8C696.146 1336.15 700.516 1335.39 704.9 1335.56L717.9 1335.76C726.55 1335.91 735.21 1336.06 743.9 1336.28L747.15 1336.36C748.24 1336.36 749.29 1336.36 750.42 1336.51C752.645 1336.73 754.8 1337.42 756.75 1338.51C758.694 1339.6 760.397 1341.07 761.755 1342.84C763.113 1344.61 764.098 1346.63 764.65 1348.79C765.186 1350.94 765.264 1353.18 764.88 1355.36C764.482 1357.54 763.567 1359.6 762.21 1361.36C760.931 1363.13 759.477 1364.76 757.87 1366.23C756.282 1367.71 754.588 1369.06 752.8 1370.29L752.74 1370.21C756.242 1367.68 759.306 1364.59 761.81 1361.07C763.083 1359.36 763.929 1357.37 764.28 1355.27C764.611 1353.17 764.499 1351.03 763.95 1348.98C763.392 1346.94 762.425 1345.04 761.109 1343.38C759.792 1341.73 758.152 1340.36 756.29 1339.36C754.431 1338.36 752.392 1337.73 750.29 1337.52C749.223 1337.42 748.152 1337.37 747.08 1337.38L743.84 1337.31C735.18 1337.15 726.53 1336.93 717.84 1336.7L704.84 1336.33C700.545 1336.09 696.249 1336.77 692.24 1338.33C690.24 1339.09 688.35 1340.15 686.41 1341.12L680.63 1344.12C676.78 1346.12 672.93 1348.12 669.11 1350.12C661.43 1354.12 653.82 1358.26 646.17 1362.3C644.244 1363.25 642.378 1364.32 640.58 1365.49C638.832 1366.71 637.211 1368.11 635.74 1369.65C632.776 1372.75 630.55 1376.47 629.23 1380.55C627.985 1384.67 627.089 1388.9 626.55 1393.17C625.967 1397.45 625.683 1401.77 625.7 1406.09L625.63 1406Z" fill="#FF9A6C"/>
<path d="M720.44 1433.91C720.25 1436.37 719.808 1438.8 719.12 1441.16C718.455 1443.55 717.54 1445.86 716.39 1448.05C715.244 1450.28 713.737 1452.31 711.93 1454.05C711.01 1454.89 710.004 1455.64 708.93 1456.27C707.844 1456.86 706.683 1457.31 705.48 1457.6C707.72 1456.67 709.735 1455.27 711.39 1453.5C713.018 1451.73 714.4 1449.76 715.5 1447.62C716.626 1445.48 717.592 1443.25 718.39 1440.97C718.8 1439.83 719.16 1438.66 719.5 1437.49C719.84 1436.32 720.15 1435.1 720.44 1433.91Z" fill="#FF9A6C"/>
<path d="M723.71 1431.05C724.847 1432.53 725.836 1434.12 726.66 1435.79C727.47 1437.47 728.162 1439.21 728.73 1440.99C729.868 1444.57 730.442 1448.31 730.43 1452.07C730.437 1453.01 730.393 1453.95 730.3 1454.89C730.265 1455.83 730.165 1456.76 730 1457.68L729.51 1460.45C729.28 1461.36 729.01 1462.25 728.75 1463.15L728.35 1464.5C728.22 1464.94 728.02 1465.37 727.85 1465.8L726.8 1468.4C726.47 1469.27 725.94 1470.05 725.53 1470.88C725.12 1471.71 724.64 1472.52 724.18 1473.32C724.88 1471.59 725.72 1469.95 726.35 1468.21L727.25 1465.6C727.39 1465.16 727.57 1464.73 727.69 1464.29L728 1463L728.64 1460.32L729.05 1457.6C729.2 1456.7 729.29 1455.78 729.32 1454.87C729.403 1453.96 729.437 1453.04 729.42 1452.12L729.36 1449.38L729.07 1446.65C728.809 1444.83 728.449 1443.04 727.99 1441.26C727.053 1437.67 725.612 1434.23 723.71 1431.05Z" fill="#FF9A6C"/>
<path d="M767.44 1424.72C764.992 1424.86 762.537 1424.8 760.1 1424.53C757.658 1424.29 755.235 1423.88 752.85 1423.3C750.454 1422.72 748.112 1421.94 745.85 1420.96C743.594 1419.98 741.465 1418.73 739.51 1417.24C740.62 1417.77 741.65 1418.41 742.78 1418.86C743.91 1419.31 745.01 1419.86 746.13 1420.25C748.426 1421.06 750.762 1421.76 753.13 1422.33C755.47 1422.91 757.85 1423.33 760.24 1423.77C761.44 1423.98 762.64 1424.15 763.85 1424.3C765.06 1424.45 766.23 1424.59 767.44 1424.72Z" fill="#FF9A6C"/>
<path d="M780 1433.91C782.918 1438.97 785.201 1444.38 786.8 1450C788.423 1455.64 789.248 1461.49 789.25 1467.36C789.192 1470.3 788.858 1473.24 788.25 1476.12C787.681 1479.01 786.771 1481.82 785.54 1484.49C783.087 1489.83 779.464 1494.56 774.94 1498.31C777.033 1496.3 778.932 1494.09 780.61 1491.72L781.25 1490.84L781.82 1489.92C782.2 1489.31 782.6 1488.7 782.95 1488.07C783.647 1486.81 784.274 1485.51 784.83 1484.18C787.066 1478.85 788.218 1473.13 788.22 1467.35C788.261 1461.56 787.524 1455.79 786.03 1450.2C785.312 1447.39 784.444 1444.62 783.43 1441.91C782.44 1439.18 781.295 1436.51 780 1433.91Z" fill="#FF9A6C"/>
<path d="M667.63 1430.66L671.7 1419.42L673.78 1413.81C674.492 1411.92 675.372 1410.11 676.41 1408.38C678.49 1404.91 681.204 1401.85 684.41 1399.38C686.012 1398.19 687.682 1397.08 689.41 1396.08L694.52 1392.98C701.34 1388.85 708.21 1384.8 715.06 1380.74L720.2 1377.74C721.89 1376.66 723.67 1375.73 725.52 1374.96C727.37 1374.2 729.284 1373.6 731.24 1373.17C733.24 1372.72 735.24 1372.54 737.16 1372.28L749.02 1370.73L754.95 1369.95C756.95 1369.69 758.88 1369.39 760.95 1369.32C765.079 1369.37 769.035 1370.99 772.01 1373.85C772.741 1374.56 773.41 1375.33 774.01 1376.15C774.59 1377 775.098 1377.89 775.53 1378.82C775.757 1379.28 775.954 1379.75 776.12 1380.23L776.57 1381.71C776.694 1382.21 776.788 1382.71 776.85 1383.22L776.98 1383.98C776.98 1384.23 776.98 1384.49 776.98 1384.75V1386.29L776.8 1387.82C776.782 1388.08 776.749 1388.34 776.7 1388.59L776.5 1389.33C776.36 1389.83 776.25 1390.33 776.09 1390.82C775.36 1392.73 774.396 1394.53 773.22 1396.2C770.838 1399.48 767.937 1402.35 764.63 1404.69C758.07 1409.4 750.5 1412.4 742.86 1414.69L743 1414.61L731.7 1424.32C727.94 1427.57 724.13 1430.75 720.34 1433.97L720.28 1433.89C723.97 1430.58 727.64 1427.22 731.36 1423.89L742.5 1414L742.56 1413.94H742.64C750.2 1411.54 757.64 1408.44 764.03 1403.85C767.238 1401.57 770.049 1398.77 772.35 1395.58C772.89 1394.77 773.44 1393.96 773.9 1393.1L774.26 1392.46L774.55 1391.8L775.13 1390.47C775.28 1390.01 775.39 1389.54 775.52 1389.08L775.71 1388.38C775.758 1388.15 775.791 1387.91 775.81 1387.67L775.99 1386.23V1384.79C775.99 1384.55 775.99 1384.3 775.99 1384.06L775.88 1383.35C775.818 1382.87 775.732 1382.4 775.62 1381.93L775.21 1380.54C775.058 1380.08 774.874 1379.63 774.66 1379.2C774.261 1378.32 773.79 1377.47 773.25 1376.67C772.674 1375.89 772.039 1375.15 771.35 1374.47C768.59 1371.72 764.891 1370.13 761 1370C759.07 1370 757.08 1370.3 755.1 1370.53L749.16 1371.22L737.29 1372.61C735.29 1372.86 733.29 1373.03 731.39 1373.46C729.45 1373.88 727.555 1374.48 725.73 1375.26C723.906 1376.05 722.15 1376.98 720.48 1378.06L715.4 1381.21C708.63 1385.41 701.87 1389.63 695.06 1393.77L689.95 1396.87C688.223 1397.84 686.554 1398.91 684.95 1400.08C681.802 1402.46 679.117 1405.41 677.03 1408.76C674.87 1412.07 673.67 1415.9 672.17 1419.59L667.74 1430.69L667.63 1430.66Z" fill="#FF9A6C"/>
<path d="M599.48 1211.76C599.319 1211.76 599.16 1211.72 599.017 1211.65C598.874 1211.57 598.752 1211.46 598.66 1211.33L578.93 1183.11C578.854 1183 578.8 1182.88 578.771 1182.75C578.742 1182.62 578.74 1182.49 578.763 1182.36C578.786 1182.23 578.835 1182.1 578.907 1181.99C578.978 1181.88 579.071 1181.78 579.18 1181.71C579.398 1181.56 579.666 1181.5 579.927 1181.55C580.187 1181.59 580.419 1181.74 580.57 1181.96L600.3 1210.19C600.452 1210.41 600.512 1210.67 600.467 1210.93C600.422 1211.19 600.276 1211.43 600.06 1211.58C599.89 1211.7 599.687 1211.76 599.48 1211.76Z" fill="#1B1B2F"/>
<path d="M574.1 1175.44C573.94 1175.44 573.781 1175.4 573.639 1175.33C573.496 1175.26 573.373 1175.15 573.28 1175.02L561 1157.43C560.865 1157.21 560.818 1156.95 560.87 1156.7C560.922 1156.45 561.068 1156.23 561.279 1156.08C561.489 1155.94 561.748 1155.88 562.001 1155.91C562.254 1155.95 562.483 1156.09 562.64 1156.29L574.93 1173.87C575.081 1174.09 575.139 1174.36 575.092 1174.62C575.045 1174.88 574.897 1175.11 574.68 1175.26C574.51 1175.38 574.307 1175.44 574.1 1175.44Z" fill="#1B1B2F"/>
<path d="M560.15 1155.49C559.989 1155.49 559.83 1155.45 559.687 1155.38C559.544 1155.3 559.422 1155.19 559.33 1155.06L547.63 1138.33C547.554 1138.22 547.5 1138.1 547.471 1137.97C547.442 1137.84 547.44 1137.71 547.463 1137.58C547.486 1137.45 547.535 1137.32 547.606 1137.21C547.678 1137.1 547.771 1137.01 547.88 1136.93C548.098 1136.78 548.366 1136.72 548.627 1136.77C548.887 1136.81 549.119 1136.96 549.27 1137.18L560.97 1153.92C561.074 1154.07 561.135 1154.25 561.146 1154.43C561.158 1154.61 561.119 1154.79 561.035 1154.95C560.95 1155.11 560.823 1155.25 560.667 1155.34C560.511 1155.44 560.332 1155.49 560.15 1155.49Z" fill="#1B1B2F"/>
<path d="M841.62 481.93H421.14C416.264 481.927 411.435 482.886 406.929 484.75C402.423 486.614 398.328 489.348 394.879 492.795C391.43 496.242 388.694 500.335 386.828 504.84C384.961 509.345 384 514.174 384 519.05V910.41C384 920.255 387.911 929.696 394.872 936.658C401.834 943.619 411.275 947.53 421.12 947.53H568.3L631.38 1035L694.46 947.51H841.62C851.465 947.51 860.906 943.599 867.868 936.638C874.829 929.676 878.74 920.235 878.74 910.39V519.05C878.74 509.205 874.829 499.764 867.868 492.802C860.906 485.841 851.465 481.93 841.62 481.93Z" fill="white"/>
<path d="M631.39 577.67C664.773 577.651 697.843 584.103 728.77 596.67L702.11 623.32C664.122 610.747 623.468 608.538 584.342 616.919C545.216 625.301 509.034 643.97 479.53 671C477.876 672.525 475.937 673.708 473.824 674.483C471.712 675.257 469.468 675.607 467.22 675.513C464.972 675.419 462.765 674.883 460.725 673.935C458.684 672.987 456.851 671.646 455.33 669.988C453.808 668.331 452.629 666.39 451.859 664.276C451.088 662.162 450.743 659.917 450.841 657.669C450.94 655.422 451.48 653.215 452.433 651.177C453.385 649.139 454.73 647.308 456.39 645.79C504.109 601.928 566.575 577.613 631.39 577.67Z" fill="#1F4168"/>
<path d="M807.41 670C805.888 671.654 804.055 672.991 802.017 673.936C799.978 674.882 797.773 675.416 795.527 675.509C793.282 675.602 791.04 675.251 788.93 674.478C786.82 673.704 784.883 672.522 783.23 671C769 657.944 753.15 646.773 736.07 637.76L761.23 612.6C777.442 621.984 792.578 633.114 806.37 645.79C808.03 647.31 809.373 649.143 810.324 651.183C811.275 653.223 811.814 655.431 811.91 657.679C812.007 659.928 811.659 662.174 810.887 664.288C810.115 666.402 808.933 668.343 807.41 670Z" fill="#1F4168"/>
<path d="M631.39 651.31C644.394 651.287 657.365 652.627 670.09 655.31L639.64 685.74C636.9 685.59 634.16 685.52 631.39 685.52C611.084 685.446 590.975 689.501 572.285 697.44C553.596 705.379 536.715 717.035 522.67 731.7C519.493 734.853 515.208 736.637 510.732 736.67C506.256 736.704 501.945 734.984 498.721 731.879C495.497 728.774 493.616 724.53 493.482 720.056C493.347 715.582 494.969 711.233 498 707.94C515.235 689.953 535.947 675.658 558.878 665.923C581.808 656.188 606.479 651.216 631.39 651.31Z" fill="#1F4168"/>
<path d="M764.32 732.16C761.052 735.31 756.667 737.035 752.128 736.956C747.589 736.878 743.267 735.002 740.11 731.74C723.496 714.417 702.973 701.329 680.26 693.57L706.65 667.16C728.475 676.894 748.208 690.763 764.76 708C767.9 711.265 769.616 715.642 769.534 720.171C769.452 724.7 767.576 729.011 764.32 732.16Z" fill="#1F4168"/>
<path d="M594 731.39L537.4 788C536.574 785.485 536.344 782.813 536.727 780.195C537.111 777.576 538.098 775.082 539.61 772.91C552.965 753.735 571.983 739.217 594 731.39Z" fill="#1F4168"/>
<path d="M718.87 796.78C717.024 798.064 714.944 798.971 712.747 799.45C710.55 799.928 708.281 799.969 706.068 799.57C703.856 799.17 701.744 798.338 699.853 797.122C697.963 795.905 696.33 794.328 695.05 792.48C686.046 779.493 673.284 769.572 658.477 764.05C643.671 758.529 627.529 757.67 612.22 761.59L647.68 726.14C662.793 728.383 677.286 733.698 690.266 741.757C703.246 749.816 714.437 760.449 723.15 773C725.724 776.725 726.719 781.317 725.917 785.773C725.115 790.229 722.581 794.187 718.87 796.78Z" fill="#1F4168"/>
<path d="M646.545 874.203C667.294 865.849 677.342 842.257 668.989 821.508C660.635 800.759 637.043 790.71 616.294 799.064C595.545 807.418 585.496 831.01 593.85 851.759C602.203 872.508 625.796 882.556 646.545 874.203Z" fill="#1F4168"/>
<path d="M755.55 647.2C784.49 647.2 807.95 623.74 807.95 594.8C807.95 565.86 784.49 542.4 755.55 542.4C726.61 542.4 703.15 565.86 703.15 594.8C703.15 623.74 726.61 647.2 755.55 647.2Z" fill="#00796B"/>
<path d="M730 624.62C729.157 624.614 728.335 624.358 727.636 623.886C726.938 623.414 726.394 622.747 726.074 621.967C725.754 621.187 725.67 620.33 725.835 619.504C726 618.677 726.405 617.917 727 617.32L778.1 566.22C778.924 565.59 779.949 565.28 780.984 565.348C782.019 565.417 782.994 565.859 783.727 566.593C784.461 567.326 784.903 568.301 784.972 569.336C785.04 570.371 784.73 571.396 784.1 572.22L733 623.37C732.607 623.766 732.14 624.08 731.625 624.295C731.11 624.509 730.558 624.62 730 624.62Z" fill="white"/>
<path d="M781.1 624.62C780.542 624.619 779.99 624.508 779.475 624.294C778.961 624.079 778.493 623.765 778.1 623.37L727 572.27C726.37 571.446 726.06 570.421 726.128 569.386C726.197 568.351 726.639 567.376 727.373 566.643C728.106 565.909 729.081 565.467 730.116 565.398C731.151 565.33 732.176 565.64 733 566.27L784.1 617.37C784.887 618.17 785.327 619.248 785.327 620.37C785.327 621.492 784.887 622.57 784.1 623.37C783.707 623.766 783.24 624.08 782.725 624.295C782.21 624.509 781.658 624.62 781.1 624.62Z" fill="white"/>
<path d="M631.38 1035.88L568 948H421.14C411.167 947.987 401.606 944.019 394.553 936.967C387.501 929.914 383.533 920.353 383.52 910.38V519.05C383.533 509.077 387.501 499.516 394.553 492.463C401.606 485.411 411.167 481.443 421.14 481.43H841.62C851.594 481.441 861.157 485.408 868.21 492.46C875.263 499.513 879.229 509.076 879.24 519.05V910.41C879.221 920.379 875.251 929.934 868.199 936.98C861.147 944.027 851.589 947.989 841.62 948H694.72L631.38 1035.88ZM421.14 482.43C411.431 482.441 402.123 486.302 395.257 493.167C388.392 500.033 384.531 509.341 384.52 519.05V910.41C384.539 920.114 388.404 929.414 395.268 936.273C402.132 943.132 411.436 946.989 421.14 947H568.55L568.7 947.21L631.38 1034.14L694.21 947H841.62C851.329 946.989 860.637 943.128 867.503 936.263C874.368 929.397 878.229 920.089 878.24 910.38V519.05C878.229 509.341 874.368 500.033 867.503 493.167C860.637 486.302 851.329 482.441 841.62 482.43H421.14Z" fill="#1F4168"/>
<path d="M2013.36 1851.12H416.25V1854.12H2013.36V1851.12Z" fill="#1B1A2E"/>
<path d="M1799.25 494.66C1785.4 494.595 1771.79 498.211 1759.79 505.138C1747.8 512.065 1737.87 522.054 1731.01 534.083C1724.15 546.112 1720.6 559.748 1720.75 573.595C1720.89 587.442 1724.7 601.004 1731.81 612.89L1712.9 642.16L1753.77 636.58C1763.79 643.659 1775.33 648.279 1787.47 650.066C1799.61 651.853 1812 650.756 1823.63 646.865C1835.26 642.973 1845.82 636.397 1854.44 627.668C1863.06 618.938 1869.5 608.302 1873.24 596.619C1876.99 584.937 1877.93 572.537 1875.99 560.424C1874.05 548.31 1869.28 536.824 1862.07 526.896C1854.87 516.967 1845.43 508.875 1834.51 503.274C1823.6 497.674 1811.52 494.723 1799.25 494.66Z" fill="white"/>
<path d="M1712.9 642.16C1716.29 641.57 1719.69 641.05 1723.09 640.54C1726.49 640.03 1729.89 639.54 1733.3 639.08C1736.71 638.62 1740.11 638.17 1743.52 637.75L1748.64 637.14C1750.35 636.95 1752.06 636.75 1753.77 636.58C1752.08 636.88 1750.38 637.14 1748.68 637.42L1743.58 638.19C1740.18 638.7 1736.78 639.19 1733.37 639.65C1729.96 640.11 1726.56 640.56 1723.15 640.98C1719.74 641.4 1716.32 641.81 1712.9 642.16Z" fill="#1B1A2E"/>
<path d="M1731.81 612.89C1730.33 615.4 1728.81 617.89 1727.27 620.33C1725.73 622.77 1724.15 625.23 1722.6 627.68C1721.05 630.13 1719.43 632.55 1717.81 634.96L1715.38 638.57C1714.55 639.77 1713.74 640.97 1712.9 642.16C1713.63 640.9 1714.4 639.67 1715.14 638.42L1717.44 634.72C1718.98 632.26 1720.55 629.82 1722.11 627.37C1723.67 624.92 1725.28 622.5 1726.89 620.09C1728.5 617.68 1730.13 615.27 1731.81 612.89Z" fill="#1B1A2E"/>
<path d="M1753.77 636.58C1757.69 639.308 1761.85 641.681 1766.19 643.67C1779.28 649.632 1793.76 651.844 1808.03 650.06C1817.5 648.93 1826.67 646.051 1835.09 641.57C1846.66 635.424 1856.49 626.45 1863.67 615.484C1870.84 604.517 1875.12 591.914 1876.11 578.848C1877.11 565.781 1874.78 552.676 1869.34 540.752C1863.91 528.827 1855.55 518.472 1845.04 510.648C1834.52 502.824 1822.2 497.787 1809.22 496.005C1796.24 494.223 1783.02 495.754 1770.78 500.456C1758.55 505.158 1747.71 512.878 1739.26 522.897C1730.82 532.916 1725.04 544.909 1722.48 557.76C1718.65 576.658 1721.98 596.304 1731.81 612.89C1725.6 602.589 1721.84 590.994 1720.84 579.007C1719.83 567.019 1721.6 554.961 1726.01 543.768C1730.41 532.575 1737.34 522.548 1746.25 514.465C1755.16 506.382 1765.81 500.46 1777.38 497.16C1791.33 493.203 1806.11 493.181 1820.07 497.098C1834.04 501.014 1846.64 508.717 1856.5 519.353C1866.36 529.989 1873.09 543.145 1875.94 557.366C1878.78 571.586 1877.64 586.317 1872.64 599.93C1869.3 608.961 1864.31 617.298 1857.94 624.52C1851.58 631.741 1843.95 637.739 1835.43 642.22C1826.92 646.695 1817.65 649.54 1808.1 650.61C1793.74 652.271 1779.2 649.913 1766.1 643.8C1761.79 641.759 1757.66 639.343 1753.77 636.58Z" fill="#1B1A2E"/>
<path d="M1799 615.56C1799.97 615.594 1800.93 615.424 1801.83 615.063C1802.73 614.701 1803.54 614.155 1804.22 613.46C1805.62 612.034 1806.41 610.128 1806.45 608.133C1806.49 606.137 1805.76 604.204 1804.41 602.73C1803.76 602.012 1802.96 601.438 1802.08 601.044C1801.19 600.65 1800.23 600.444 1799.26 600.44C1798.27 600.423 1797.28 600.602 1796.36 600.966C1795.43 601.33 1794.59 601.872 1793.88 602.562C1793.16 603.252 1792.59 604.076 1792.2 604.987C1791.8 605.898 1791.59 606.877 1791.57 607.87C1791.55 608.863 1791.73 609.849 1792.1 610.773C1792.46 611.697 1793 612.54 1793.69 613.254C1794.38 613.968 1795.21 614.539 1796.12 614.935C1797.03 615.33 1798.01 615.543 1799 615.56ZM1794 529.71L1794.26 590.71L1803.53 590.88L1805.95 529.88L1794 529.71Z" fill="#00796B"/>
<path d="M1210.16 794.8L1182.22 793.87L1174.46 778.22L1149.44 786.74L1144.8 775.54L1106.98 759.7L1103.14 780.39L1139 786.68L1141.71 799.45L1173.14 789.35L1174.88 797.98L1210.16 794.8Z" fill="#00796B"/>
<path d="M1235.97 886.38L1215.56 905.48L1199.01 899.91L1187.34 923.62L1176.14 918.99L1138.2 934.53L1150.11 951.87L1179.91 930.97L1190.86 938.07L1205.94 908.71L1213.27 913.58L1235.97 886.38Z" fill="#00796B"/>
<path d="M1196.39 845.52L1161.65 856.17L1145.5 840.2L1118.32 861.22L1107.89 849.41L1054.72 845.88L1058.72 872.93L1105.46 865.55L1114.18 880.1L1148.56 854.44L1154.34 864.31L1196.39 845.52Z" fill="#00796B"/>
</svg>
