<svg width="959" height="898" viewBox="0 0 959 898" fill="none" xmlns="http://www.w3.org/2000/svg">
<path d="M38.325 854V758.975H0.699951V731.5H110.425V758.975H72.975V854H38.325ZM119.982 854L174.057 731.5H208.182L262.432 854H226.382L184.032 748.475H197.682L155.332 854H119.982ZM149.557 830.2L158.482 804.65H218.332L227.257 830.2H149.557ZM270.49 854L324.04 779.625L323.865 804.3L272.415 731.5H311.44L344.34 778.925L327.715 779.1L360.09 731.5H397.54L346.09 802.9V778.4L400.34 854H360.44L327.015 804.125H342.94L310.04 854H270.49Z" fill="#171717"/>
<path d="M579.946 731.5H614.596V854H579.946V731.5ZM532.696 854H498.046V731.5H532.696V854ZM582.396 806.225H530.246V777.525H582.396V806.225ZM656.537 854V731.5H712.537C723.737 731.5 733.362 733.308 741.412 736.925C749.579 740.542 755.879 745.792 760.312 752.675C764.745 759.442 766.962 767.492 766.962 776.825C766.962 786.042 764.745 794.033 760.312 800.8C755.879 807.45 749.579 812.583 741.412 816.2C733.362 819.7 723.737 821.45 712.537 821.45H675.787L691.187 806.925V854H656.537ZM732.312 854L701.862 809.375H738.787L769.412 854H732.312ZM691.187 810.6L675.787 794.675H710.437C717.67 794.675 723.037 793.1 726.537 789.95C730.154 786.8 731.962 782.425 731.962 776.825C731.962 771.108 730.154 766.675 726.537 763.525C723.037 760.375 717.67 758.8 710.437 758.8H675.787L691.187 742.875V810.6ZM803.578 854V731.5H832.103L882.853 814.8H867.803L917.153 731.5H945.678L946.028 854H914.178L913.828 779.975H919.253L882.328 841.925H866.928L828.953 779.975H835.603V854H803.578Z" fill="#1864EC"/>
<path fill-rule="evenodd" clip-rule="evenodd" d="M358.556 507.489C356.914 533.774 355.271 548.849 353.628 575.134C291.781 574.747 171.76 564.504 168.088 389.207V297.983V174C295.26 228.019 362.808 336.251 358.556 507.489Z" fill="#1964EB"/>
<path opacity="0.47" fill-rule="evenodd" clip-rule="evenodd" d="M168.088 302.816V300.4C254.77 339.731 305.117 410.565 320.965 498.503C327.73 535.901 330.242 562.669 296.806 552.619C260.471 541.796 215.536 505.268 207.225 448.349C194.759 363.697 183.163 322.337 168.088 302.816Z" fill="#1964EB"/>
<path opacity="0.43" fill-rule="evenodd" clip-rule="evenodd" d="M358.556 507.489C356.914 533.774 355.271 548.849 353.628 575.134C337.297 451.054 291.781 317.407 168.088 281.072V174C295.26 228.019 362.808 336.251 358.556 507.489Z" fill="#1964EB"/>
<path d="M358.556 507.49C356.914 533.775 355.271 548.85 353.628 575.135C351.115 439.265 306.18 304.072 168.088 264.452V174.001C295.26 228.02 362.808 336.252 358.556 507.49Z" fill="#0352DF"/>
<path fill-rule="evenodd" clip-rule="evenodd" d="M460.5 0C503.822 0 539 35.0941 539 78.5C539 121.906 503.906 157 460.5 157C417.094 157 382 121.906 382 78.5C382 35.0941 417.178 0 460.5 0Z" fill="#1864EC"/>
<path d="M553.746 510.409C555.389 536.694 557.031 551.769 558.674 578.054C620.521 577.667 740.542 567.424 744.214 392.127V300.903V176.92C617.042 230.939 549.494 339.171 553.746 510.409Z" fill="#19A594"/>
<mask id="mask0_3131_1680" style="mask-type:luminance" maskUnits="userSpaceOnUse" x="553" y="176" width="192" height="403">
<path d="M553.746 510.408C555.389 536.693 557.031 551.768 558.674 578.053C620.521 577.666 740.542 567.423 744.214 392.126V300.902V176.919C617.042 230.938 549.494 339.17 553.746 510.408Z" fill="white"/>
</mask>
<g mask="url(#mask0_3131_1680)">
<path d="M744.215 176.919H549.494V578.053H744.215V176.919Z" fill="#1964EB"/>
</g>
<mask id="mask1_3131_1680" style="mask-type:luminance" maskUnits="userSpaceOnUse" x="552" y="174" width="192" height="402">
<path d="M553.189 507.489C554.832 533.774 556.474 548.849 558.117 575.134C560.63 439.264 605.565 304.071 743.657 264.451V174C616.485 228.019 548.937 336.251 553.189 507.489Z" fill="white"/>
</mask>
<g mask="url(#mask1_3131_1680)">
<path d="M548.937 174H743.657V575.134H548.937V174Z" fill="#0350DD"/>
</g>
<path d="M439.5 423.5C366.5 146.5 192.5 142.167 159 153.5C281 92.9996 392.833 155.5 444 249C568.8 116.6 749 87 859.5 74.5C607.5 160.5 508 266 439.5 423.5Z" fill="#171717"/>
</svg>
