<?xml version="1.0" standalone="no"?>
<!DOCTYPE svg PUBLIC "-//W3C//DTD SVG 20010904//EN"
 "http://www.w3.org/TR/2001/REC-SVG-20010904/DTD/svg10.dtd">
<svg version="1.0" xmlns="http://www.w3.org/2000/svg"
 width="500.000000pt" height="500.000000pt" viewBox="0 0 500.000000 500.000000"
 preserveAspectRatio="xMidYMid meet">

<g transform="translate(0.000000,500.000000) scale(0.100000,-0.100000)"
fill="#000000" stroke="none">
<path d="M2276 4724 c-484 -87 -867 -467 -973 -964 -24 -116 -24 -352 1 -468
33 -153 64 -225 448 -1047 78 -165 174 -372 213 -460 40 -88 145 -313 232
-500 88 -187 181 -389 208 -449 79 -177 107 -171 205 40 35 77 122 263 193
414 71 151 180 385 242 520 62 135 139 299 170 365 165 347 425 918 443 975
92 281 77 584 -43 863 -58 135 -132 242 -250 363 -194 197 -400 307 -655 349
-117 18 -327 18 -434 -1z m247 -95 c-8 -8 -19 -8 -40 -1 -28 10 -28 10 12 11
28 1 36 -2 28 -10z m-113 -10 c-12 -8 -9 -10 12 -6 18 3 25 0 21 -9 -5 -15
-27 -12 -68 10 l-30 16 40 0 c31 0 37 -3 25 -11z m222 -1 c-17 -8 -26 -8 -34
0 -9 9 -4 12 23 11 32 0 33 -1 11 -11z m-292 -2 c0 -9 -40 -13 -46 -5 -3 5 6
9 20 9 14 0 26 -2 26 -4z m173 -15 c4 -4 -4 -7 -18 -7 -13 0 -27 6 -30 14 -4
10 1 12 18 7 12 -4 25 -10 30 -14z m60 12 c-7 -2 -13 -8 -13 -11 0 -10 52 -8
68 2 7 4 16 5 19 2 4 -3 0 -6 -8 -7 -8 0 -6 -4 6 -9 15 -6 6 -9 -32 -9 -28 -1
-55 4 -58 9 -4 6 -11 8 -16 5 -5 -3 -6 1 -3 9 3 9 16 16 28 15 11 0 15 -3 9
-6z m137 -2 c0 -5 -9 -7 -20 -4 -11 3 -20 7 -20 9 0 2 9 4 20 4 11 0 20 -4 20
-9z m-432 -7 c-4 -3 -21 -7 -40 -10 -26 -3 -29 -2 -13 5 22 11 62 14 53 5z
m99 0 c-3 -3 -12 -4 -19 -1 -8 3 -5 6 6 6 11 1 17 -2 13 -5z m411 -14 c2 -5 9
-7 17 -4 20 8 172 -56 262 -111 281 -172 457 -426 518 -748 19 -100 19 -302 1
-399 -21 -107 -93 -318 -109 -318 -4 0 -6 -4 -2 -9 3 -5 -1 -16 -9 -24 -8 -8
-12 -17 -9 -21 4 -3 1 -6 -6 -6 -7 0 -10 -4 -6 -9 3 -5 -1 -16 -9 -24 -8 -8
-13 -17 -10 -19 5 -5 -163 -359 -174 -368 -4 -3 -8 -12 -10 -22 -2 -16 -129
-288 -157 -339 -8 -14 -11 -30 -7 -34 4 -4 -4 -4 -18 0 -23 7 -24 6 -6 -7 15
-12 16 -17 5 -29 -8 -8 -15 -21 -17 -29 -2 -8 -7 -17 -10 -20 -4 -3 -8 -12
-10 -21 -2 -14 -94 -210 -302 -644 -29 -60 -53 -116 -53 -123 0 -8 -8 -10 -21
-6 -21 6 -21 6 -1 -11 19 -15 19 -16 1 -11 -14 5 -16 3 -9 -6 8 -9 -7 -50 -53
-147 -70 -147 -71 -148 -81 -137 -4 4 -1 12 7 17 13 9 13 10 -1 6 -9 -3 -22 0
-29 6 -9 9 -8 5 1 -15 7 -16 16 -28 21 -28 4 0 8 -4 8 -10 0 -5 -4 -10 -9 -10
-7 0 -123 239 -124 257 0 4 -7 14 -14 22 -12 11 -11 16 7 28 11 8 20 21 20 30
0 13 -3 13 -15 3 -8 -7 -12 -16 -9 -21 3 -5 1 -9 -4 -9 -8 0 -52 79 -52 93 0
4 7 3 17 0 11 -4 14 -3 9 5 -4 7 -13 12 -20 12 -7 0 -51 80 -98 178 -67 140
-84 185 -80 210 3 21 0 32 -8 32 -7 0 -9 -9 -5 -22 3 -13 -12 11 -34 52 -45
84 -47 92 -26 84 8 -4 12 -11 8 -17 -3 -5 2 -16 11 -23 9 -6 18 -21 19 -33 1
-12 10 -24 22 -27 28 -9 35 -23 24 -51 -5 -15 -5 -23 2 -23 6 0 8 -3 6 -7 -8
-13 12 -55 23 -48 6 4 7 -1 3 -12 -6 -16 -5 -16 10 -4 10 8 20 11 24 7 3 -3 0
-6 -7 -6 -9 0 -7 -5 6 -16 18 -15 18 -15 -5 -8 -16 4 -21 3 -17 -5 4 -6 13
-11 21 -11 7 0 16 -7 19 -16 6 -15 4 -15 -11 -3 -17 13 -17 13 0 -13 9 -15 17
-37 17 -48 0 -14 4 -19 12 -14 7 5 8 3 4 -5 -5 -8 -3 -11 7 -9 9 2 23 -6 32
-17 16 -20 16 -19 9 5 -3 14 -3 22 1 18 4 -4 9 -30 10 -59 1 -28 -1 -45 -6
-38 -4 7 -5 17 -2 23 3 5 1 6 -5 3 -6 -5 -8 0 -5 12 3 10 0 22 -5 25 -7 4 -9
-3 -7 -16 7 -48 18 -68 36 -68 12 0 19 -7 19 -18 0 -22 34 -57 48 -49 4 3 9
-19 9 -50 0 -30 -3 -50 -7 -43 -5 9 -9 9 -14 1 -4 -6 0 -14 8 -17 9 -3 13 -11
9 -17 -4 -6 0 -8 10 -4 20 8 29 -4 17 -23 -5 -8 -3 -24 5 -41 8 -14 11 -30 7
-34 -4 -4 0 -6 8 -3 10 4 15 18 14 47 l-1 41 22 -20 c14 -13 21 -31 20 -51 -2
-36 -19 -57 -30 -38 -5 8 -4 10 3 5 7 -4 12 -3 12 3 0 12 -20 25 -21 14 0 -4
-2 -18 -3 -30 -1 -12 1 -20 6 -17 4 3 11 -2 14 -10 3 -9 11 -13 17 -9 6 3 7 1
3 -5 -4 -6 1 -10 13 -9 16 1 18 4 8 16 -9 12 -9 13 0 8 8 -5 21 9 38 42 26 53
35 84 10 41 -12 -22 -14 -23 -21 -7 -8 22 -3 28 25 30 12 1 19 6 17 12 -2 5
-9 9 -16 7 -8 -2 -11 4 -7 18 3 11 1 20 -4 20 -5 0 -9 5 -9 11 0 5 5 7 12 3 8
-5 9 -2 5 9 -9 23 2 47 18 41 22 -9 27 14 8 43 -10 15 -12 24 -5 20 7 -5 12
-3 12 5 0 7 7 2 16 -10 20 -28 33 -28 28 1 -2 12 -1 16 2 8 9 -18 24 6 17 26
-5 12 -7 12 -14 1 -7 -11 -10 -10 -21 1 -11 11 -11 13 1 6 11 -6 13 -4 8 8 -4
10 -2 16 5 14 6 -1 15 13 19 32 4 19 21 47 38 63 36 33 46 36 31 7 -7 -11 -14
-18 -17 -15 -7 7 -33 -13 -33 -25 0 -5 7 -9 15 -9 9 0 12 -6 9 -15 -5 -12 -10
-13 -20 -4 -15 13 -17 5 -5 -26 6 -16 13 -8 38 45 26 56 29 67 18 85 -7 11
-13 40 -12 65 0 25 2 35 4 23 5 -27 33 -40 33 -14 0 10 7 24 16 32 9 7 15 26
14 48 -3 53 -1 61 11 61 8 0 9 -4 0 -13 -6 -8 -8 -17 -4 -20 3 -4 12 1 20 11
12 14 14 14 10 1 -3 -9 1 -16 9 -16 8 0 12 8 10 21 -2 12 -8 20 -12 19 -5 0
-15 5 -22 13 -11 12 -10 14 3 14 8 0 20 9 27 20 7 11 16 20 20 20 14 0 8 -23
-9 -35 -9 -7 -13 -17 -9 -23 10 -17 26 -15 20 2 -3 7 2 16 11 19 12 5 14 18
11 57 -3 42 -1 47 9 33 7 -9 11 -24 8 -33 -3 -10 -1 -9 7 3 9 14 9 22 -1 34
-11 13 -10 18 7 32 28 23 65 77 57 85 -9 9 -13 37 -4 32 4 -3 13 -1 21 5 13 7
12 9 -2 9 -10 0 -18 5 -18 11 0 5 -6 7 -12 3 -7 -4 -9 -3 -5 1 10 12 38 15 31
4 -3 -5 0 -9 5 -9 11 0 15 13 12 38 -1 7 5 15 13 18 9 3 13 10 10 16 -8 12
-34 -10 -34 -28 0 -8 -4 -14 -10 -14 -5 0 -10 5 -10 11 0 5 -4 7 -10 4 -5 -3
-10 1 -10 10 0 23 19 55 32 55 6 0 3 -9 -6 -19 -10 -11 -13 -22 -8 -25 6 -3
12 1 16 9 3 8 16 15 29 15 31 0 40 10 25 27 -9 11 -9 16 2 23 8 5 18 6 22 4 4
-3 8 -1 8 5 0 5 -8 12 -17 14 -14 4 -13 5 4 6 26 1 38 17 22 27 -8 4 -9 3 -5
-4 4 -7 2 -12 -3 -12 -6 0 -11 9 -11 21 0 11 -4 17 -10 14 -5 -3 -10 -2 -10 3
0 5 9 12 19 15 14 3 18 1 14 -9 -3 -8 0 -14 6 -14 6 0 11 6 11 14 0 17 -24 38
-33 29 -4 -3 -7 -1 -7 5 0 7 9 12 19 12 10 0 22 7 25 16 4 9 13 14 21 10 17
-6 46 41 44 71 -1 12 -3 11 -8 -6 -4 -14 -12 -26 -19 -27 -7 -1 -8 0 -2 3 5 2
7 10 3 16 -4 7 -13 27 -19 45 -10 26 -9 32 2 32 8 0 14 -10 14 -24 0 -33 33
-24 48 12 11 26 11 27 7 2 -4 -19 -1 -17 12 10 9 19 15 41 14 49 -1 7 2 10 8
6 6 -3 11 1 11 9 0 9 -3 15 -7 15 -20 -3 -23 3 -11 24 7 12 12 28 13 36 0 17
25 28 25 12 0 -6 5 -11 11 -11 5 0 7 5 3 12 -4 6 -3 9 2 5 5 -3 17 12 26 34
19 44 14 48 -18 18 l-22 -21 14 44 c28 83 46 104 49 58 1 -16 -1 -18 -13 -7
-13 10 -14 8 -7 -12 5 -16 4 -21 -4 -17 -6 4 -11 2 -11 -3 0 -15 23 -14 38 1
7 7 12 20 12 30 0 10 6 18 13 18 8 0 7 4 -3 10 -13 8 -13 10 1 10 19 0 32 37
17 46 -6 4 -6 10 1 17 7 7 7 14 0 24 -8 9 -8 17 0 26 6 8 8 18 4 23 -4 5 -1 3
7 -3 16 -15 30 -17 30 -5 0 5 -11 14 -25 20 -16 8 -25 19 -24 34 0 15 3 18 6
8 4 -8 11 -19 17 -25 10 -9 19 -10 50 -6 6 0 1 7 -10 15 -18 14 -18 15 7 25
32 12 40 29 26 55 -7 15 -6 18 6 13 11 -4 14 -2 10 8 -3 8 -9 13 -13 10 -10
-6 -32 20 -23 28 10 11 25 8 18 -3 -3 -6 1 -7 9 -4 10 4 16 1 16 -7 0 -7 3 -9
6 -6 4 4 1 13 -5 21 -10 12 -8 22 13 53 14 21 26 32 26 26 0 -7 -4 -15 -10
-18 -13 -8 -13 -35 -1 -35 12 0 25 55 22 93 -1 19 3 27 14 27 9 0 13 5 10 10
-4 6 -12 7 -18 4 -9 -5 -8 -3 0 6 9 9 9 17 2 26 -7 8 -7 14 1 19 5 3 10 -2 10
-12 1 -29 26 25 33 70 7 48 -10 39 -19 -11 -4 -20 -9 -31 -12 -23 -3 9 -7 10
-11 2 -4 -6 -7 7 -6 29 0 46 2 48 16 18 8 -20 9 -18 4 10 -2 18 -7 83 -9 145
-4 88 -3 98 4 47 4 -36 8 -91 9 -124 1 -50 3 -57 16 -46 9 8 12 22 8 42 -4 21
-3 29 4 25 8 -5 10 25 6 95 -4 107 -8 122 -23 98 -8 -13 -10 -12 -10 3 0 10 7
20 16 24 13 5 13 7 2 14 -9 6 -10 11 -2 17 7 5 6 15 -3 32 l-13 25 -1 -30 c-1
-22 -3 -25 -7 -10 l-5 20 -8 -20 c-6 -16 -8 -17 -8 -3 -1 9 4 20 9 23 6 3 10
13 10 21 0 8 -4 13 -8 10 -4 -2 -7 7 -6 22 2 34 2 34 15 26 8 -5 8 -8 0 -13
-8 -5 -7 -13 3 -27 14 -18 15 -18 12 8 -1 14 -10 37 -19 50 -10 14 -14 16 -11
6 4 -10 1 -18 -5 -18 -6 0 -11 9 -11 20 0 11 5 20 10 20 15 0 12 16 -5 34 -8
8 -15 23 -15 34 0 11 -7 22 -15 26 -8 3 -15 10 -15 16 0 6 5 8 11 4 7 -4 10
-1 7 6 -2 8 -10 16 -18 18 -13 5 -11 -29 5 -70 12 -30 -13 -20 -29 12 -8 17
-11 28 -6 25 4 -2 10 7 13 20 2 14 0 28 -4 31 -5 3 -9 -5 -10 -18 0 -15 -3
-18 -6 -8 -4 8 -14 22 -24 31 -17 14 -16 16 13 27 26 9 29 14 19 26 -7 8 -18
13 -25 10 -8 -3 -16 3 -20 13 -6 15 -8 15 -16 3 -11 -16 -11 -15 -15 50 -3 57
-3 58 -15 40 -6 -9 -10 -10 -10 -3 0 7 -9 10 -22 7 -13 -3 -33 -8 -46 -11 -18
-4 -21 -2 -15 12 4 13 3 16 -5 11 -7 -4 -12 -1 -12 6 0 8 -12 18 -27 24 -24 8
-25 10 -10 25 12 13 13 19 4 29 -8 9 -8 11 -1 7 15 -8 38 18 29 33 -3 6 -11 8
-16 4 -5 -3 -6 -11 -2 -17 4 -7 0 -6 -10 2 -9 7 -15 17 -12 21 5 7 -29 41 -55
55 -8 5 -4 -4 9 -18 27 -30 18 -37 -12 -9 -18 15 -20 15 -14 1 4 -13 1 -16
-15 -11 -19 5 -19 6 -4 17 20 15 21 35 1 35 -8 0 -15 7 -15 16 0 11 -6 14 -20
9 -15 -5 -18 -3 -14 9 5 12 2 15 -11 9 -17 -6 -17 -8 3 -23 14 -12 19 -24 15
-39 -6 -22 -18 -27 -28 -11 -3 6 -1 10 4 10 6 0 11 5 11 11 0 5 -4 8 -10 4 -5
-3 -18 3 -28 13 -10 10 -23 17 -30 14 -13 -4 -62 42 -62 59 0 8 5 7 17 -2 14
-12 16 -12 9 0 -6 9 -5 12 5 9 7 -2 14 -15 14 -28 0 -13 6 -25 13 -27 6 -3 12
0 12 7 0 6 -4 8 -10 5 -5 -3 -10 0 -10 8 0 8 9 13 23 11 33 -4 33 -4 19 -12
-14 -9 -6 -42 10 -42 6 0 5 6 -2 15 -10 12 -9 16 4 21 13 5 13 8 1 20 -7 8
-22 11 -32 8 -15 -5 -16 -4 -3 6 13 10 13 11 -2 7 -9 -3 -19 1 -22 8 -3 10
-18 14 -43 12 -24 -1 -38 2 -38 10 0 6 -4 15 -9 20 -5 4 -6 3 -3 -3 4 -7 1
-17 -7 -23 -11 -9 -15 -9 -19 1 -4 10 -8 10 -15 -1 -9 -12 -17 -10 -51 12 -22
15 -47 24 -55 21 -7 -3 -17 -1 -21 5 -3 6 1 11 10 11 12 0 15 5 11 16 -5 14
-1 16 26 10 18 -4 34 -11 36 -16z m-598 -10 c-8 -5 -23 -10 -33 -10 -11 0 -15
-4 -11 -12 4 -6 3 -9 -2 -6 -5 3 -18 2 -29 -3 -17 -7 -16 -8 8 -8 16 -1 26 -4
24 -9 -9 -13 -71 -6 -75 9 -3 11 -1 11 7 -1 9 -13 11 -13 11 2 0 15 63 46 100
47 13 1 13 0 0 -9z m90 -6 c0 -2 -17 -4 -37 -3 -29 0 -33 2 -18 8 18 7 55 4
55 -5z m-92 -23 c11 -6 10 -10 -4 -15 -9 -3 -19 -4 -22 -1 -3 3 1 5 9 5 11 0
11 2 -1 10 -8 5 -10 10 -5 10 6 0 16 -4 23 -9z m172 -1 c0 -5 -4 -10 -10 -10
-5 0 -10 5 -10 10 0 6 5 10 10 10 6 0 10 -4 10 -10z m170 -4 c14 -2 -10 -4
-52 -5 -43 0 -78 2 -78 7 0 6 70 6 130 -2z m229 -10 c8 -10 9 -16 1 -21 -5 -3
-10 -1 -10 4 0 6 -5 11 -11 11 -5 0 -7 -5 -3 -12 4 -7 3 -8 -4 -4 -12 7 -5 36
8 36 4 0 13 -6 19 -14z m-722 -16 c-14 -11 -30 -20 -37 -20 -24 0 2 -20 28
-21 25 -2 25 -2 3 -6 -13 -3 -28 0 -34 6 -18 18 -31 13 -16 -6 11 -15 11 -16
-1 -5 -21 18 -35 15 -19 -5 10 -11 10 -14 2 -9 -8 4 -13 2 -13 -6 0 -10 -2
-10 -9 0 -13 22 -114 -54 -106 -79 4 -11 2 -19 -5 -19 -6 0 -8 5 -5 10 3 6 -1
10 -10 10 -9 0 -13 -5 -10 -10 4 -6 -9 -17 -28 -25 -36 -15 -68 -45 -48 -45 6
0 14 6 16 13 3 6 19 13 35 14 18 1 28 -2 25 -7 -4 -6 -17 -10 -31 -10 -14 0
-23 -4 -20 -9 4 -5 -5 -8 -19 -6 -14 1 -25 -2 -25 -6 0 -5 5 -9 10 -9 7 0 7
-6 0 -20 -13 -24 -30 -26 -30 -3 0 15 -2 14 -14 -2 -8 -11 -11 -24 -8 -30 4
-5 6 -21 5 -35 -1 -14 0 -18 3 -9 6 20 45 32 58 19 7 -7 6 -10 -2 -10 -7 0
-12 -11 -12 -25 0 -33 -42 -75 -74 -75 -20 0 -27 -7 -35 -32 -5 -19 -10 -25
-10 -14 -1 11 -4 16 -8 12 -9 -9 -14 -33 -15 -78 0 -25 -5 -38 -14 -38 -8 0
-14 7 -14 15 0 8 -6 15 -12 16 -7 0 -3 5 10 11 15 8 22 20 22 39 0 15 7 34 15
42 12 13 12 16 -7 21 -12 3 -24 3 -27 1 -2 -3 1 -5 7 -5 7 0 12 -5 12 -11 0
-5 -5 -7 -12 -3 -7 4 -8 3 -4 -4 4 -7 2 -12 -3 -12 -6 0 -11 -9 -11 -20 0 -11
-6 -19 -12 -18 -8 2 -12 -6 -10 -22 2 -19 0 -22 -8 -10 -8 13 -10 12 -10 -2 0
-10 4 -18 10 -18 5 0 8 -13 7 -29 -1 -18 -7 -27 -14 -24 -7 3 -13 9 -13 13 0
5 6 10 13 13 6 2 8 8 4 13 -12 12 -28 -18 -21 -40 4 -11 2 -16 -4 -12 -6 3
-13 -3 -16 -14 -3 -11 -9 -30 -12 -41 -4 -13 -2 -19 4 -15 6 3 13 0 15 -6 3
-7 6 -4 7 7 l1 20 9 -20 c7 -16 9 -14 9 15 1 28 4 32 12 20 9 -12 10 -11 6 6
-3 16 0 21 12 19 9 -2 19 -4 24 -4 4 -1 7 -15 7 -31 0 -63 -84 -107 -108 -57
-11 24 -11 26 -17 -65 0 -9 -4 -20 -7 -23 -4 -4 -4 -13 -1 -21 3 -8 1 -20 -4
-27 -6 -8 -5 -21 4 -37 l14 -25 -4 27 c-2 15 0 25 4 22 11 -6 10 -62 -1 -89
-7 -18 -8 -17 -15 10 -12 53 -13 51 -14 -12 -1 -35 3 -63 9 -63 5 0 7 6 4 14
-3 8 -1 17 5 21 6 3 11 0 11 -9 0 -21 -11 -47 -19 -42 -3 2 -6 -11 -6 -30 0
-34 9 -45 18 -21 3 6 5 3 4 -8 0 -11 3 -31 7 -44 6 -16 5 -21 -3 -17 -17 11
-3 -65 16 -86 14 -16 12 -22 -9 -19 -4 0 -5 -6 -2 -14 5 -13 8 -12 21 1 21 21
30 8 10 -14 -10 -11 -13 -22 -7 -32 5 -8 6 -18 4 -22 -3 -4 3 -8 13 -8 15 0
16 -2 3 -10 -8 -5 -11 -12 -7 -16 4 -4 12 -3 18 3 12 12 1 65 -12 57 -5 -3 -9
0 -9 6 0 6 7 13 16 17 9 3 14 13 11 24 -4 14 0 19 14 19 16 0 18 -3 9 -19 -12
-23 -13 -34 -2 -27 4 2 14 0 22 -5 11 -8 8 -9 -14 -6 -26 4 -28 3 -23 -23 7
-33 -2 -72 -14 -64 -15 9 -10 -7 8 -24 15 -15 16 -15 11 -1 -3 9 -2 22 3 30 6
10 9 7 9 -11 0 -15 -5 -31 -11 -37 -7 -7 -2 -15 15 -27 20 -12 25 -23 22 -46
-2 -18 1 -27 7 -23 6 4 8 0 4 -10 -3 -10 -2 -17 3 -17 6 0 10 5 10 10 0 6 4
10 10 10 6 0 5 -10 -2 -25 -6 -14 -15 -25 -20 -25 -5 0 -6 5 -3 10 3 6 2 10
-3 10 -23 0 -123 269 -146 390 -18 94 -21 294 -5 390 14 87 82 291 120 356 21
38 35 52 50 51 18 -1 18 -3 5 -13 -9 -6 -13 -14 -9 -17 3 -4 13 1 22 11 9 9
25 22 36 28 14 8 21 24 23 53 2 26 -1 41 -6 37 -6 -3 -8 -15 -5 -25 7 -28 -13
-58 -41 -63 -38 -7 -38 0 -5 48 78 114 215 234 364 319 84 48 115 58 72 25z
m266 3 c-13 -2 -35 -2 -50 0 -16 2 -5 4 22 4 28 0 40 -2 28 -4z m320 0 c-13
-2 -33 -2 -45 0 -13 2 -3 4 22 4 25 0 35 -2 23 -4z m-699 -102 c-5 -3 -10 -17
-10 -31 -2 -39 -3 -42 -15 -34 -8 4 -7 9 2 15 11 7 11 9 -1 9 -13 0 -13 1 0
10 8 5 12 12 8 15 -3 4 -18 -1 -32 -11 -15 -9 -29 -14 -32 -11 -3 3 7 12 23
21 16 8 36 22 43 31 10 12 15 14 18 5 3 -7 1 -15 -4 -19z m100 23 c9 -3 16
-15 16 -25 0 -17 -3 -18 -20 -9 -11 6 -20 7 -20 3 0 -10 -20 19 -20 30 0 9 22
9 44 1z m880 0 c24 -9 21 -54 -4 -54 -23 0 -35 22 -26 45 6 17 8 17 30 9z
m121 -74 c0 -16 -72 -23 -81 -8 -10 16 6 24 43 23 26 0 38 -5 38 -15z m-1094
-13 c-10 -9 -11 -8 -5 6 3 10 9 15 12 12 3 -3 0 -11 -7 -18z m-101 -67 c-24
-15 -36 -11 -14 4 10 8 21 12 24 10 2 -3 -2 -9 -10 -14z m-64 -85 c-5 -13 -9
-14 -28 -4 l-23 13 25 6 c30 8 34 6 26 -15z m404 -16 c0 -5 -11 -9 -25 -9 -24
0 -32 10 -19 22 8 8 44 -3 44 -13z m213 7 c15 -12 12 -13 -26 -9 -25 3 -54 0
-67 -7 -18 -10 -25 -9 -37 3 -13 13 -12 14 11 10 15 -3 26 -1 26 6 0 16 71 13
93 -3z m207 4 c0 -5 -15 -10 -32 -9 -31 1 -32 1 -8 9 35 11 40 11 40 0z m100
-15 c-7 -8 -17 -15 -23 -15 -6 0 -2 8 9 19 22 21 33 19 14 -4z m153 5 c21 -25
22 -37 2 -20 -8 7 -24 10 -35 7 -22 -6 -35 7 -25 23 10 16 39 11 58 -10z
m-386 4 c-3 -3 -12 -4 -19 -1 -8 3 -5 6 6 6 11 1 17 -2 13 -5z m170 0 c-3 -3
-12 -4 -19 -1 -8 3 -5 6 6 6 11 1 17 -2 13 -5z m113 -14 c-24 -8 -24 -8 7 -9
17 -1 39 -8 47 -17 19 -18 19 -21 4 -30 -6 -4 -8 -3 -5 3 10 16 -19 35 -43 28
-23 -7 -59 20 -37 28 6 3 21 5 32 5 16 0 15 -2 -5 -8z m-433 -16 c-16 -9 -37
-12 -49 -8 -14 4 -18 3 -14 -5 5 -8 -3 -11 -23 -9 -17 1 -31 8 -31 15 0 9 14
12 48 9 27 -3 55 0 63 5 8 5 19 9 24 8 6 0 -3 -7 -18 -15z m535 -41 c3 -10 18
-25 34 -33 16 -8 39 -25 51 -37 12 -13 32 -23 45 -23 16 0 19 -3 11 -11 -9 -9
-18 -8 -37 5 -30 19 -40 20 -30 4 4 -8 3 -10 -2 -5 -5 5 -9 12 -9 16 0 16 -44
53 -56 46 -8 -6 -10 -4 -4 5 6 9 4 12 -6 8 -9 -4 -14 2 -15 18 -2 28 11 32 18
7z m39 -10 c13 -16 12 -17 -3 -4 -17 13 -22 21 -14 21 2 0 10 -8 17 -17z
m-701 -8 c-14 -17 -24 -20 -15 -5 4 7 -3 7 -20 0 -33 -13 -32 -13 -39 5 -4 12
4 15 41 15 39 0 44 -2 33 -15z m777 9 c-3 -3 -12 -4 -19 -1 -8 3 -5 6 6 6 11
1 17 -2 13 -5z m-826 -44 c-28 -24 -37 -25 -45 -5 -4 12 0 14 18 9 13 -3 27
-1 30 5 4 6 10 11 14 11 4 -1 -4 -10 -17 -20z m829 4 c0 -8 -4 -12 -10 -9 -5
3 -10 10 -10 16 0 5 5 9 10 9 6 0 10 -7 10 -16z m-902 -71 c-24 -25 -35 -30
-45 -21 -11 9 -11 14 3 29 10 11 12 19 6 19 -7 0 -12 -4 -12 -8 0 -17 -26 -8
-27 9 -1 14 3 16 27 9 16 -4 32 -5 36 -2 4 4 0 -5 -9 -20 -18 -29 -8 -39 13
-13 10 12 13 21 19 55 1 3 6 -2 11 -10 7 -11 1 -23 -22 -47z m538 46 c167 -30
309 -153 374 -324 31 -79 33 -224 6 -305 -71 -212 -257 -350 -473 -350 -138 0
-261 51 -357 148 -199 200 -188 524 24 715 116 104 267 145 426 116z m450 -10
c10 -17 -13 -36 -27 -22 -12 12 -4 33 11 33 5 0 12 -5 16 -11z m-30 -43 c8 -8
14 -25 15 -38 0 -22 1 -22 9 -3 5 11 9 15 9 8 2 -20 -11 -43 -20 -37 -13 8
-11 -8 4 -27 11 -15 18 -19 35 -19 4 0 8 -18 9 -41 l1 -40 -25 48 c-15 26 -37
62 -49 79 -13 17 -24 36 -24 41 0 6 -7 14 -16 17 -9 4 -14 9 -10 13 8 9 46
-27 46 -44 0 -7 5 -13 11 -13 11 0 3 37 -13 58 -14 17 0 15 18 -2z m-1061 -5
c-5 -9 32 -27 47 -23 11 3 3 -22 -24 -68 -14 -25 -33 -58 -41 -75 -16 -30 -16
-29 -13 37 1 37 6 71 11 75 4 5 5 0 2 -9 -3 -10 -1 -20 4 -24 7 -4 7 -10 0
-17 -6 -6 -11 -20 -11 -31 0 -13 11 -1 33 34 35 57 39 94 6 43 -20 -30 -26
-25 -9 7 9 16 8 18 -6 13 -12 -4 -15 -3 -10 6 4 6 2 18 -4 26 -10 12 -9 15 4
15 10 0 15 -4 11 -9z m1469 -106 c-4 -8 -8 -15 -10 -15 -2 0 -4 7 -4 15 0 8 4
15 10 15 5 0 7 -7 4 -15z m-291 -15 c3 -11 -1 -23 -8 -28 -16 -8 -22 -42 -12
-59 4 -6 3 -14 -3 -18 -5 -3 -10 -11 -10 -18 0 -8 3 -8 12 1 21 21 28 13 27
-25 -1 -22 -3 -29 -6 -18 -7 30 -23 43 -24 20 0 -19 -1 -19 -9 0 -4 11 -6 31
-3 45 4 21 3 22 -7 10 -10 -12 -11 -12 -5 5 4 11 10 29 13 40 2 11 9 25 14 32
5 7 7 17 3 23 -3 5 -2 10 3 10 5 0 12 -9 15 -20z m-1353 0 c0 -5 -4 -10 -10
-10 -5 0 -10 5 -10 10 0 6 5 10 10 10 6 0 10 -4 10 -10z m1311 -23 c-8 -8 -11
-7 -11 4 0 20 13 34 18 19 3 -7 -1 -17 -7 -23z m106 3 c1 -17 -2 -30 -6 -30
-5 0 -12 -10 -16 -22 -4 -15 -8 -19 -12 -10 -3 8 0 19 6 25 6 6 11 24 11 39 0
38 14 36 17 -2z m-1289 -40 c9 -23 7 -36 -4 -57 l-15 -28 7 38 c4 24 2 37 -5
37 -6 0 -8 -6 -5 -14 3 -8 1 -17 -5 -20 -6 -4 -8 -20 -5 -35 4 -17 1 -32 -6
-36 -8 -5 -11 -1 -9 11 2 11 -1 25 -6 33 -5 10 -4 16 3 19 7 2 12 13 12 25 -1
20 -2 20 -16 -6 -12 -22 -13 -35 -4 -69 9 -30 14 -38 20 -28 15 24 17 8 11
-103 -4 -63 -2 -112 4 -118 5 -6 3 -9 -8 -9 -9 0 -17 7 -17 16 0 8 -4 13 -9
10 -5 -4 -7 4 -3 16 5 21 6 21 14 2 10 -26 -2 94 -14 125 -12 32 -1 40 12 10
15 -33 5 5 -13 56 -9 22 -21 40 -29 40 -24 0 -22 62 4 89 33 36 73 34 86 -4z
m-308 -80 c0 -5 -4 -10 -10 -10 -5 0 -10 5 -10 10 0 6 5 10 10 10 6 0 10 -4
10 -10z m1597 -67 c-3 -10 -5 -2 -5 17 0 19 2 27 5 18 2 -10 2 -26 0 -35z
m-80 5 c-3 -7 -5 -2 -5 12 0 14 2 19 5 13 2 -7 2 -19 0 -25z m420 -20 c-3 -8
-6 -5 -6 6 -1 11 2 17 5 13 3 -3 4 -12 1 -19z m-1737 -18 c0 -16 -4 -30 -10
-30 -5 0 -10 -10 -10 -22 0 -12 -2 -19 -5 -16 -8 8 7 98 16 98 5 0 9 -13 9
-30z m1340 -23 c0 -18 6 -39 13 -46 10 -11 10 -13 0 -7 -9 5 -13 -1 -13 -21 0
-15 -5 -35 -10 -43 -7 -10 -10 11 -10 68 0 48 4 82 10 82 6 0 10 -15 10 -33z
m434 -79 c2 -83 -11 -57 -17 32 -3 55 -2 68 5 50 6 -14 11 -51 12 -82z m-1727
5 c-3 -10 -5 -2 -5 17 0 19 2 27 5 18 2 -10 2 -26 0 -35z m-31 25 c4 -6 3 -8
-3 -5 -11 7 -29 -61 -19 -71 3 -3 6 4 6 16 0 11 5 24 10 27 15 9 12 -27 -4
-48 -19 -25 -30 -5 -21 41 10 53 17 62 31 40z m1384 -8 c0 -11 -2 -20 -4 -20
-2 0 -6 9 -9 20 -3 11 -1 20 4 20 5 0 9 -9 9 -20z m-3 -62 c-3 -8 -6 -5 -6 6
-1 11 2 17 5 13 3 -3 4 -12 1 -19z m-78 -80 c-1 -42 -7 -75 -19 -98 -11 -19
-19 -28 -20 -20 0 13 -1 13 -10 0 -13 -20 -13 -33 1 -24 8 4 8 0 0 -15 -7 -11
-14 -21 -17 -21 -3 0 -2 5 2 12 5 8 2 9 -10 5 -16 -6 -16 -4 1 26 11 17 25 43
32 57 l12 25 -5 -25 c-5 -24 -5 -24 10 -5 8 11 14 34 13 50 -3 44 0 95 6 95 2
0 4 -28 4 -62z m-1243 7 c-7 -6 -16 -19 -19 -30 -4 -16 -5 -14 -6 7 0 14 -4
33 -7 42 -5 13 -2 13 20 3 21 -10 23 -14 12 -22z m1304 15 c0 -11 6 -23 13
-26 7 -2 13 -13 14 -24 2 -26 -19 -16 -34 17 -16 33 -17 53 -3 53 6 0 10 -9
10 -20z m-1283 -42 c-3 -8 -6 -5 -6 6 -1 11 2 17 5 13 3 -3 4 -12 1 -19z m-53
-10 c10 -38 7 -58 -9 -58 -8 0 -15 9 -15 19 0 11 -4 23 -10 26 -17 11 -11 35
9 35 11 0 21 -9 25 -22z m33 -25 c-3 -10 -5 -2 -5 17 0 19 2 27 5 18 2 -10 2
-26 0 -35z m53 -44 c5 -18 5 -27 -1 -24 -5 4 -9 15 -9 25 0 10 -4 22 -10 25
-5 3 -10 14 -10 23 1 15 2 15 11 -1 6 -10 15 -32 19 -48z m1230 5 c0 -8 -6
-14 -12 -15 -7 0 -4 -4 7 -9 14 -6 15 -9 5 -9 -9 -1 -24 -13 -34 -28 -11 -18
-15 -21 -11 -8 3 11 9 32 12 48 3 15 10 27 15 27 5 0 6 5 2 12 -4 7 -3 8 4 4
7 -4 12 -14 12 -22z m-1640 -10 c0 -14 -3 -14 -15 -4 -8 7 -15 14 -15 16 0 2
7 4 15 4 8 0 15 -7 15 -16z m1586 -41 c-8 -15 -15 -25 -16 -21 0 12 23 58 27
54 3 -2 -2 -17 -11 -33z m-1300 3 c21 -21 18 -26 -16 -26 -23 0 -30 4 -30 20
0 23 25 27 46 6z m134 -8 c19 -21 21 -21 14 -3 -4 11 11 -7 33 -40 22 -33 47
-66 56 -74 9 -7 14 -17 11 -22 -3 -5 0 -9 6 -9 7 0 24 -10 38 -22 17 -13 20
-19 9 -15 -15 6 -17 3 -13 -16 3 -12 3 -16 0 -9 -3 7 -22 19 -41 27 -29 12
-39 13 -51 3 -13 -11 -14 -10 -8 12 4 14 8 32 9 41 1 10 7 15 16 11 8 -3 -1
14 -19 39 -19 24 -36 46 -37 48 -2 2 -6 1 -10 -2 -3 -4 2 -16 12 -27 15 -17
16 -20 3 -15 -13 5 -16 -1 -13 -34 1 -22 -1 -38 -6 -35 -5 3 -9 11 -9 19 0 7
-7 15 -15 19 -19 7 -19 30 0 59 10 16 11 26 4 37 -9 12 -10 12 -5 -3 3 -11 2
-16 -4 -12 -10 6 -14 45 -5 45 2 0 14 -10 25 -22z m1265 -3 c0 -10 -6 -20 -12
-22 -9 -3 -12 4 -11 21 3 29 23 30 23 1z m-1608 -37 c-3 -8 -6 -5 -6 6 -1 11
2 17 5 13 3 -3 4 -12 1 -19z m1453 -40 c0 -10 -4 -18 -10 -18 -5 0 -10 7 -10
17 0 15 -2 15 -19 -1 -13 -12 -21 -14 -26 -6 -4 7 2 14 15 17 12 3 19 11 16
19 -4 11 -2 11 14 1 11 -6 20 -20 20 -29z m-1476 -15 c0 -17 -6 -28 -15 -28
-23 0 -10 43 16 55 1 0 0 -12 -1 -27z m1887 -12 c4 7 12 10 16 5 4 -5 2 -11
-4 -13 -7 -3 -13 -12 -14 -21 0 -14 -2 -13 -9 3 -5 11 -9 25 -9 30 1 6 3 4 6
-4 4 -11 7 -11 14 0z m-1481 -16 c0 -8 -2 -15 -4 -15 -2 0 -6 7 -10 15 -3 8
-1 15 4 15 6 0 10 -7 10 -15z m993 -21 c-3 -9 -11 -13 -19 -10 -7 3 -15 0 -17
-7 -2 -7 -7 -9 -11 -5 -11 9 25 47 40 41 7 -2 10 -11 7 -19z m-1365 -21 c-2
-9 -8 -18 -15 -20 -7 -3 -9 3 -6 16 6 25 26 28 21 4z m1437 -4 c0 -7 -8 -15
-19 -17 -23 -5 -43 13 -25 23 8 5 10 4 5 -3 -4 -7 -2 -12 3 -12 6 0 11 7 11
16 0 9 6 14 13 12 6 -3 12 -11 12 -19z m-90 -9 c-3 -5 -14 -10 -23 -9 -14 0
-13 2 3 9 27 11 27 11 20 0z m-790 -40 c22 -15 25 -20 12 -20 -11 0 -15 -4
-11 -12 4 -7 3 -8 -4 -4 -7 4 -25 -1 -42 -11 -42 -24 -59 -5 -25 27 19 18 28
21 37 12 7 -7 17 -12 23 -12 5 1 -1 10 -14 20 -30 26 -15 26 24 0z m716 3 c11
-13 11 -15 1 -9 -9 6 -12 3 -10 -10 2 -13 -3 -19 -17 -19 -11 0 -22 -3 -25 -7
-3 -3 -14 1 -25 9 -18 15 -19 15 -1 9 22 -7 70 20 61 34 -10 16 2 11 16 -7z
m-1281 -2 c0 -5 -7 -11 -15 -15 -15 -5 -20 5 -8 17 9 10 23 9 23 -2z m1798
-28 c1 -14 -1 -23 -5 -19 -10 10 -14 46 -5 46 4 0 9 -12 10 -27z m-1802 -19
c-3 -9 -6 -18 -6 -20 0 -3 -4 -3 -10 1 -11 7 -2 35 12 35 6 0 7 -7 4 -16z
m651 -1 c-9 -9 12 -33 30 -33 8 0 12 4 8 9 -3 6 7 6 27 1 34 -10 61 -30 41
-30 -7 0 -15 5 -18 10 -3 6 -16 10 -28 9 -20 0 -20 -1 -4 -8 17 -6 16 -8 -8
-19 -18 -8 -32 -9 -43 -2 -14 8 -13 10 8 10 15 1 19 4 10 7 -8 3 -23 13 -33
21 -13 12 -15 17 -5 24 16 9 24 10 15 1z m1196 0 c-7 -2 -19 -2 -25 0 -7 3 -2
5 12 5 14 0 19 -2 13 -5z m-688 -13 c-3 -5 -18 -10 -33 -9 l-27 1 25 8 c35 11
42 11 35 0z m46 -20 c6 0 7 6 3 13 -5 8 -2 8 9 -2 21 -17 22 -35 2 -27 -8 3
-15 0 -15 -6 0 -8 -6 -6 -16 4 -10 10 -13 21 -8 29 6 10 9 10 12 1 2 -7 8 -12
13 -12z m592 13 c-7 -2 -19 -2 -25 0 -7 3 -2 5 12 5 14 0 19 -2 13 -5z m-1203
-24 c0 -5 -11 -9 -25 -9 -24 0 -32 10 -19 22 8 8 44 -3 44 -13z m555 -6 c-10
-6 -14 -16 -10 -22 3 -6 -1 -11 -10 -11 -11 0 -15 5 -11 15 3 10 -3 17 -20 21
-14 4 -28 4 -31 0 -4 -3 4 -6 17 -6 13 0 21 -3 17 -6 -3 -3 -21 -3 -39 1 -29
7 -30 9 -13 16 11 4 42 7 68 6 40 -1 46 -3 32 -14z m-299 -9 l39 6 -32 -12
c-35 -12 -63 -6 -63 14 0 10 2 10 9 0 5 -9 21 -12 47 -8z m173 2 c-2 -2 -17
-6 -34 -10 -22 -5 -26 -4 -15 4 14 9 59 15 49 6z m271 -6 c0 -5 -4 -10 -9 -10
-5 0 -16 -3 -25 -6 -11 -4 -16 -1 -16 10 0 10 9 16 25 16 14 0 25 -4 25 -10z
m-350 -9 c0 -5 -9 -7 -20 -4 -11 3 -20 7 -20 9 0 2 9 4 20 4 11 0 20 -4 20 -9z
m-915 -43 c19 -13 35 -29 35 -36 0 -8 5 -10 13 -6 6 4 9 3 4 -1 -4 -5 0 -16 9
-26 9 -10 14 -24 11 -31 -3 -8 -6 -5 -6 7 -1 17 -3 17 -11 5 -14 -22 -12 -43
3 -34 10 6 10 4 0 -7 -15 -15 -17 -33 -4 -25 9 6 36 -21 43 -44 3 -8 -2 -21
-9 -29 -17 -16 -3 -36 25 -36 9 0 18 -8 20 -17 2 -12 -3 -18 -15 -18 -15 0
-16 -2 -3 -10 8 -5 16 -14 16 -20 1 -5 2 -15 3 -21 0 -5 6 -7 11 -4 6 3 10 -2
11 -12 0 -10 3 -13 5 -6 3 7 12 9 20 6 24 -9 15 14 -13 36 -26 18 -26 20 -5
14 23 -6 57 -57 47 -72 -2 -5 2 -11 10 -15 8 -3 14 -13 14 -23 -1 -17 -2 -17
-6 0 -2 9 -9 15 -14 11 -5 -3 -7 -9 -5 -13 3 -3 -4 -7 -14 -7 -10 0 -16 5 -13
12 2 6 -3 17 -12 24 -15 12 -22 0 -7 -14 4 -4 7 -12 7 -18 0 -6 8 -12 19 -14
10 -1 24 -8 30 -15 8 -9 8 -10 0 -6 -15 9 -27 -20 -12 -29 6 -4 8 -3 4 4 -7
12 20 10 31 -3 4 -4 3 -6 -3 -2 -6 3 -10 -8 -11 -31 -1 -35 -1 -36 11 -13 9
15 16 20 20 12 4 -6 3 -11 -2 -11 -18 0 -21 -28 -5 -42 14 -11 16 -10 11 10
-8 30 -2 28 15 -7 14 -27 13 -29 -4 -26 -12 3 -16 -1 -12 -11 3 -7 9 -11 15
-8 5 3 12 -3 15 -15 5 -21 23 -30 23 -11 0 20 51 10 75 -15 29 -28 36 -95 11
-95 -8 0 -18 5 -21 10 -10 17 -25 11 -25 -9 0 -11 6 -22 13 -24 9 -4 9 -6 0
-6 -21 -2 -35 36 -23 60 8 15 8 24 0 34 -13 16 -50 26 -50 14 0 -5 8 -9 18
-10 14 0 14 -2 -3 -9 -24 -10 -41 -12 -32 -4 4 4 0 19 -8 33 -44 79 -134 285
-128 295 3 6 3 8 -2 4 -10 -9 -117 213 -110 230 3 7 0 10 -5 7 -9 -5 -12 1 -9
21 0 4 -4 10 -9 13 -17 11 -53 91 -46 103 4 7 3 8 -4 4 -7 -4 -12 -2 -12 3 0
17 17 13 55 -11z m115 -32 c0 -8 5 -16 12 -18 6 -2 9 -11 6 -18 -3 -10 -10 -4
-22 18 -9 17 -12 32 -6 32 5 0 10 -6 10 -14z m1515 -99 c0 -25 -26 -57 -45
-57 -7 0 -10 -8 -7 -20 3 -11 1 -20 -4 -20 -15 0 -10 36 6 50 8 7 15 22 15 35
0 24 8 35 25 35 6 0 11 -10 10 -23z m-1492 -28 c-3 -68 -8 -85 -25 -86 -22 -2
-23 4 -3 23 8 8 11 22 8 31 -4 11 -3 14 5 9 8 -5 12 3 12 24 0 18 -4 29 -10
25 -5 -3 -10 -1 -10 5 0 7 6 10 13 7 7 -2 11 -18 10 -38z m121 -118 c10 -16
-5 -41 -24 -41 -19 0 -34 25 -24 41 3 5 14 9 24 9 10 0 21 -4 24 -9z m32 -106
c-1 -55 -16 -61 -16 -7 0 32 6 52 15 52 1 0 1 -20 1 -45z m1144 -70 c0 -16 -6
-25 -15 -25 -15 0 -21 31 -8 43 13 14 23 6 23 -18z m100 5 c0 -5 -2 -10 -4
-10 -3 0 -8 5 -11 10 -3 6 -1 10 4 10 6 0 11 -4 11 -10z m-1232 -68 c3 -16 -2
-22 -15 -21 -10 0 -13 3 -5 6 6 2 12 11 12 19 0 9 -4 12 -10 9 -5 -3 -10 -1
-10 5 0 21 25 4 28 -18z m1139 -4 c-3 -8 -6 -5 -6 6 -1 11 2 17 5 13 3 -3 4
-12 1 -19z m-987 -88 c0 -5 -4 -10 -10 -10 -5 0 -10 5 -10 10 0 6 5 10 10 10
6 0 10 -4 10 -10z m-129 -109 c-7 -5 -10 -14 -7 -20 4 -6 0 -11 -9 -11 -9 0
-13 5 -10 10 3 6 1 10 -5 10 -6 0 -8 5 -5 10 3 6 16 10 28 10 16 0 19 -3 8 -9z
m17 -61 c7 -12 9 -26 5 -33 -5 -9 -3 -9 9 0 8 7 18 10 21 6 11 -10 8 -33 -4
-33 -5 0 -7 5 -3 12 4 7 3 8 -5 4 -6 -4 -8 -13 -4 -19 4 -7 8 -16 8 -22 0 -5
6 -11 13 -11 6 -1 16 -2 21 -3 5 0 12 -9 14 -18 3 -11 5 -7 6 10 1 16 -3 26
-9 22 -6 -3 -7 1 -4 9 11 29 24 16 24 -24 0 -22 -1 -42 -2 -44 -2 -2 6 -13 16
-25 12 -13 14 -21 7 -21 -8 0 -10 -7 -6 -20 7 -21 -1 -25 -22 -12 -15 10 -113
213 -107 223 2 4 -2 10 -8 12 -9 4 -8 6 2 6 8 1 21 -8 28 -19z m1059 14 c-3
-3 -12 -4 -19 -1 -8 3 -5 6 6 6 11 1 17 -2 13 -5z m-131 -115 c3 -6 1 -15 -6
-19 -7 -4 -9 -13 -6 -19 4 -6 2 -11 -3 -11 -6 0 -11 14 -11 30 0 30 13 40 26
19z m54 -54 c0 -8 -7 -15 -16 -15 -8 0 -13 -4 -10 -8 3 -5 -6 -21 -19 -38 -13
-16 -24 -23 -25 -16 0 6 4 12 9 12 5 0 7 9 4 20 -4 14 2 23 21 31 14 7 26 16
26 21 0 4 2 8 5 8 3 0 5 -7 5 -15z m-800 -75 c8 -5 11 -12 7 -16 -4 -4 -15 0
-24 9 -18 18 -8 23 17 7z m-4 -63 c1 -9 -3 -17 -9 -18 -7 0 -3 -5 8 -10 18 -8
18 -9 1 -6 -13 1 -20 11 -22 30 -3 30 17 34 22 4z m66 -22 c-5 -30 -26 -28
-30 3 -3 16 2 22 16 22 15 0 18 -5 14 -25z m588 4 c0 -8 5 -8 15 1 10 8 15 9
15 2 0 -10 -31 -32 -44 -32 -3 0 -6 9 -6 20 0 11 5 20 10 20 6 0 10 -5 10 -11z
m-550 -81 c0 -38 -18 -33 -36 10 -7 18 -9 30 -4 27 6 -3 10 -1 10 6 0 8 4 8
15 -1 8 -7 15 -26 15 -42z m490 8 c0 -14 -4 -28 -10 -31 -6 -4 -10 7 -10 24 0
17 5 31 10 31 6 0 10 -11 10 -24z m-376 -234 c13 -21 18 -92 7 -92 -15 0 -44
68 -37 86 6 16 22 18 30 6z m274 -21 c-2 -9 -11 -17 -21 -19 -21 -4 -35 27
-17 38 19 12 42 0 38 -19z m-58 -91 c0 -27 -4 -50 -9 -50 -11 0 -20 57 -13 82
9 36 22 17 22 -32z m67 8 c-3 -8 -6 -5 -6 6 -1 11 2 17 5 13 3 -3 4 -12 1 -19z
m-247 -58 c-20 -12 -24 -5 -15 27 l7 28 11 -23 c8 -18 8 -25 -3 -32z m140
-181 c0 -20 -15 -26 -25 -9 -9 15 3 43 15 35 5 -3 10 -15 10 -26z m-93 -24 c9
-24 -1 -27 -15 -5 -8 13 -8 20 -2 20 6 0 13 -7 17 -15z m78 -94 c-3 -2 -5 2
-5 10 -1 10 -5 8 -15 -5 -18 -24 -19 -19 -3 25 l12 34 7 -30 c5 -16 6 -31 4
-34z m25 39 c0 -5 -4 -10 -10 -10 -5 0 -10 5 -10 10 0 6 5 10 10 10 6 0 10 -4
10 -10z"/>
<path d="M2746 4585 c3 -8 19 -20 35 -27 16 -7 29 -17 29 -22 0 -4 7 -3 15 4
8 6 18 9 23 6 5 -3 9 1 9 9 0 8 -3 13 -5 10 -3 -3 -11 0 -18 6 -8 6 -20 9 -28
6 -8 -3 -22 1 -33 8 -24 19 -34 19 -27 0z m84 -25 c0 -5 -2 -10 -4 -10 -3 0
-8 5 -11 10 -3 6 -1 10 4 10 6 0 11 -4 11 -10z"/>
<path d="M3234 4309 c-17 -27 -14 -51 8 -70 13 -10 29 -16 36 -14 7 3 11 1 8
-3 -3 -5 10 -8 28 -8 32 1 33 2 18 23 -8 13 -19 23 -26 23 -6 0 -6 -4 3 -9 7
-5 9 -11 5 -14 -5 -2 -25 11 -44 30 -19 19 -28 33 -20 31 8 -2 19 -7 23 -13 5
-6 7 -5 5 3 -2 8 -7 13 -12 12 -5 -1 -12 4 -16 10 -6 9 -10 9 -16 -1z"/>
<path d="M3378 4153 c10 -4 10 -8 0 -21 -12 -15 -11 -16 4 -3 19 14 15 32 -5
30 -8 0 -8 -2 1 -6z"/>
<path d="M3470 3090 c0 -5 5 -10 10 -10 6 0 10 5 10 10 0 6 -4 10 -10 10 -5 0
-10 -4 -10 -10z"/>
<path d="M3405 2879 c-4 -6 -13 -8 -20 -5 -19 7 -26 -20 -9 -34 9 -8 14 -9 14
-2 0 6 -6 13 -12 15 -8 4 -7 6 3 6 15 1 50 31 36 31 -3 0 -9 -5 -12 -11z"/>
<path d="M3225 2544 l-16 -25 25 16 c26 17 34 35 17 35 -5 0 -16 -12 -26 -26z"/>
<path d="M3100 2280 c-8 -5 -11 -12 -8 -16 4 -3 14 1 23 10 18 17 9 21 -15 6z"/>
<path d="M2923 1863 c-15 -5 -17 -23 -4 -23 5 0 11 7 15 15 3 8 4 15 3 14 -1
0 -8 -3 -14 -6z"/>
<path d="M2817 1662 c-14 -3 -16 -7 -6 -18 9 -11 9 -14 0 -14 -7 0 -9 -5 -5
-11 4 -8 12 -2 21 15 16 31 15 34 -10 28z"/>
<path d="M2762 1533 c-6 -17 -11 -21 -11 -10 -1 9 -5 17 -11 17 -14 0 -13 -13
3 -34 13 -17 14 -16 27 13 7 17 10 34 7 37 -3 3 -10 -7 -15 -23z"/>
<path d="M2267 1463 c-4 -3 -7 -11 -7 -17 0 -6 5 -5 12 2 6 6 9 14 7 17 -3 3
-9 2 -12 -2z"/>
<path d="M2338 1293 c6 -2 12 -13 12 -24 0 -10 5 -19 10 -19 11 0 13 11 4 34
-3 9 -14 16 -23 15 -10 0 -11 -2 -3 -6z"/>
<path d="M2605 1220 c3 -5 8 -10 11 -10 2 0 4 5 4 10 0 6 -5 10 -11 10 -5 0
-7 -4 -4 -10z"/>
<path d="M2580 1211 c0 -6 5 -11 11 -11 8 0 8 -4 0 -14 -9 -10 -8 -15 2 -19
18 -7 19 29 1 44 -10 8 -14 8 -14 0z"/>
<path d="M2570 1156 c0 -2 7 -9 15 -16 13 -11 14 -10 9 4 -5 14 -24 23 -24 12z"/>
<path d="M2470 1090 c0 -11 4 -20 8 -20 4 0 8 9 8 20 0 11 -4 20 -8 20 -4 0
-8 -9 -8 -20z"/>
<path d="M1624 4185 c-4 -11 -15 -25 -23 -32 -14 -11 -14 -12 1 -13 19 0 42
34 35 53 -3 7 -8 4 -13 -8z"/>
<path d="M2880 4421 c0 -12 6 -21 16 -21 9 0 14 7 12 17 -5 25 -28 28 -28 4z"/>
<path d="M2808 4193 c7 -3 16 -2 19 1 4 3 -2 6 -13 5 -11 0 -14 -3 -6 -6z"/>
<path d="M1930 3185 c0 -33 15 -33 16 0 1 14 -2 25 -7 25 -5 0 -9 -11 -9 -25z"/>
<path d="M2017 3112 c-15 -16 -15 -18 1 -19 9 -1 29 -4 45 -7 15 -2 25 0 21 5
-3 5 -10 7 -15 4 -5 -4 -16 0 -24 9 -11 11 -12 16 -2 19 7 3 7 6 1 6 -6 1 -18
-7 -27 -17z"/>
<path d="M2094 3005 c-25 -19 -14 -19 22 0 16 8 22 15 13 15 -8 0 -24 -7 -35
-15z"/>
<path d="M1630 2839 c0 -5 -5 -7 -11 -3 -14 9 10 -38 25 -48 21 -15 31 -7 11
8 -20 16 -19 16 4 9 16 -5 21 -4 17 4 -4 6 -16 11 -26 11 -13 0 -17 5 -14 15
4 8 3 15 0 15 -3 0 -6 -5 -6 -11z"/>
<path d="M1677 2713 c-7 -12 11 -53 23 -53 5 0 10 5 10 10 0 6 -4 10 -10 10
-5 0 -7 6 -4 14 6 15 -11 32 -19 19z"/>
<path d="M1725 2600 c-3 -5 1 -10 9 -10 9 0 16 5 16 10 0 6 -4 10 -9 10 -6 0
-13 -4 -16 -10z"/>
<path d="M1811 2501 c-12 -8 -12 -11 1 -25 14 -13 16 -12 16 10 0 13 -1 24 -2
24 0 0 -7 -4 -15 -9z"/>
<path d="M1835 2360 c3 -5 8 -10 11 -10 2 0 4 5 4 10 0 6 -5 10 -11 10 -5 0
-7 -4 -4 -10z"/>
<path d="M3230 2730 c0 -5 5 -10 10 -10 6 0 10 5 10 10 0 6 -4 10 -10 10 -5 0
-10 -4 -10 -10z"/>
<path d="M1840 2592 c0 -14 11 -21 26 -15 21 8 17 23 -6 23 -11 0 -20 -4 -20
-8z"/>
<path d="M2030 1950 c-8 -5 -10 -10 -3 -10 6 0 16 -13 22 -30 5 -16 12 -30 14
-30 8 0 0 39 -11 53 -7 7 -9 17 -5 20 9 10 0 8 -17 -3z"/>
<path d="M2220 1730 c0 -5 5 -10 10 -10 6 0 10 5 10 10 0 6 -4 10 -10 10 -5 0
-10 -4 -10 -10z"/>
<path d="M2345 1453 c3 -16 11 -32 17 -38 8 -7 9 -2 4 15 -3 14 -6 31 -6 38 0
6 -5 12 -11 12 -7 0 -9 -10 -4 -27z"/>
<path d="M2610 1470 c0 -5 5 -10 11 -10 5 0 7 5 4 10 -3 6 -8 10 -11 10 -2 0
-4 -4 -4 -10z"/>
<path d="M2258 660 c-312 -20 -520 -73 -577 -146 -32 -41 -27 -81 14 -120 100
-94 426 -142 898 -131 413 10 624 48 712 131 87 83 16 163 -191 216 -168 43
-588 68 -856 50z m451 -109 c7 -5 9 -11 4 -14 -16 -10 -301 -19 -306 -10 -3 5
-39 8 -79 6 -54 -3 -76 -8 -85 -20 -12 -16 -13 -15 -13 1 0 14 -5 17 -22 12
-13 -3 -33 -6 -46 -6 -13 0 -21 -4 -18 -8 3 -5 -1 -9 -9 -9 -8 0 -12 4 -9 9 3
4 -3 8 -14 8 -23 0 -82 -28 -82 -40 0 -12 -43 -20 -55 -10 -6 5 -22 7 -36 4
-23 -4 -23 -4 -2 5 15 7 21 16 17 26 -4 10 0 15 14 15 11 0 22 -7 26 -15 3 -8
1 -15 -5 -15 -6 0 -7 -4 -4 -10 4 -6 11 -5 20 3 7 6 9 14 4 15 -5 2 -9 11 -9
19 0 12 8 14 35 10 19 -3 37 -1 41 4 3 6 22 8 45 4 25 -4 39 -3 39 4 0 13 45
15 68 2 11 -6 28 -4 47 4 34 15 411 20 434 6z m136 -11 c4 -6 23 -7 46 -4 27
5 39 3 39 -6 0 -8 10 -9 30 -5 23 5 32 3 36 -10 9 -23 5 -24 -51 -14 -93 17
-175 25 -175 17 0 -10 -34 -11 -44 -1 -9 9 50 31 86 32 15 1 30 -4 33 -9z
m-259 -38 c-10 -2 -22 0 -28 6 -6 6 0 7 19 4 21 -5 23 -7 9 -10z m464 3 c0
-16 16 -21 22 -6 2 5 16 7 31 4 20 -4 26 -10 22 -21 -4 -12 -3 -12 9 -3 11 9
22 9 48 -2 l33 -15 -35 -15 c-19 -8 -51 -17 -70 -21 -31 -5 -32 -5 -12 6 12 6
22 15 22 20 0 11 -17 10 -25 -2 -3 -5 -11 -10 -16 -10 -5 0 0 10 11 22 21 23
9 41 -12 20 -13 -13 -72 14 -63 28 10 16 35 12 35 -5z m-1116 -4 c3 -5 -17
-17 -44 -27 -31 -11 -45 -21 -38 -25 7 -5 15 -4 18 1 3 5 15 11 25 12 31 4
115 -12 115 -22 0 -5 13 -7 30 -4 20 4 34 1 45 -10 9 -9 24 -16 33 -17 31 -1
-20 -18 -53 -17 -29 1 -29 1 5 8 19 4 27 8 18 9 -10 0 -18 6 -18 11 0 6 -7 10
-16 10 -8 0 -12 -5 -8 -11 8 -13 -33 -3 -53 13 -7 5 -17 7 -24 3 -6 -4 -15 -1
-20 6 -7 11 -11 10 -22 -5 -13 -18 -18 -18 -60 -6 -26 7 -44 16 -41 21 3 5 -1
6 -9 3 -8 -3 -18 -1 -21 4 -7 12 22 25 35 16 5 -3 9 0 9 6 0 7 7 10 15 6 8 -3
15 -1 15 4 0 5 10 11 23 13 12 2 25 5 29 6 4 0 9 -3 12 -8z m459 0 c4 -1 7 -5
7 -11 0 -6 -32 -10 -75 -10 -41 0 -75 4 -75 9 0 9 83 19 120 14 8 -1 18 -2 23
-2z m487 -1 c0 -5 -19 -9 -42 -9 l-43 2 40 7 c22 4 41 8 43 9 1 0 2 -3 2 -9z
m101 -40 c5 0 9 5 9 10 0 6 11 10 25 10 14 0 25 -4 25 -10 0 -5 -12 -10 -26
-10 -17 0 -23 -4 -18 -12 5 -8 2 -9 -10 -5 -10 4 -20 7 -22 7 -2 0 -3 10 -3
23 1 16 2 18 6 5 2 -10 9 -18 14 -18z m-264 8 c12 -6 20 -14 18 -18 -6 -9 64
-24 73 -16 3 3 -2 6 -11 6 -9 0 -18 3 -20 8 -3 4 15 7 39 7 49 0 58 -16 16
-28 -31 -9 -91 0 -110 16 -16 13 -312 13 -321 0 -3 -4 -20 -9 -38 -9 -22 -1
-30 2 -26 11 3 8 29 16 66 19 59 6 94 8 232 13 33 2 70 -2 82 -9z m188 -8 c-3
-5 -10 -10 -16 -10 -5 0 -9 5 -9 10 0 6 7 10 16 10 8 0 12 -4 9 -10z m-726
-21 l-24 -21 34 7 c23 5 31 4 27 -4 -9 -13 -66 -15 -66 -2 0 6 6 13 13 18 7 5
-5 10 -33 14 -45 6 -45 6 14 7 l59 2 -24 -21z m71 6 c0 -8 -2 -15 -4 -15 -2 0
-6 7 -10 15 -3 8 -1 15 4 15 6 0 10 -7 10 -15z m215 -15 c18 -8 17 -9 -7 -9
-16 -1 -28 4 -28 9 0 12 8 12 35 0z m45 0 c0 -5 -4 -10 -10 -10 -5 0 -10 5
-10 10 0 6 5 10 10 10 6 0 10 -4 10 -10z m40 0 c0 -5 -4 -10 -10 -10 -5 0 -10
5 -10 10 0 6 5 10 10 10 6 0 10 -4 10 -10z m55 0 c-3 -5 -3 -10 2 -11 73 -4
103 -4 103 2 0 4 -12 10 -27 12 -26 4 -26 4 5 6 17 0 32 -3 32 -8 0 -18 86
-22 133 -6 50 17 114 16 114 -2 0 -8 -8 -9 -24 -2 -16 6 -22 5 -18 -1 4 -6 -5
-10 -20 -10 -20 0 -26 -4 -21 -15 4 -12 -3 -15 -37 -15 -31 0 -38 3 -27 10 8
5 23 10 32 10 9 0 20 5 24 12 5 8 2 9 -12 3 -10 -4 -76 -9 -146 -10 -119 -2
-128 -1 -128 16 0 11 5 19 11 19 5 0 7 -4 4 -10z m-635 -16 c0 -2 -9 -4 -21
-4 -11 0 -18 4 -14 10 5 8 35 3 35 -6z m1100 5 c0 -5 -9 -9 -20 -9 -11 0 -20
4 -20 8 0 4 9 8 20 9 11 1 20 -2 20 -8z m-1050 -15 c0 -2 -9 -4 -21 -4 -11 0
-18 4 -14 10 5 8 35 3 35 -6z m373 9 c-7 -2 -21 -2 -30 0 -10 3 -4 5 12 5 17
0 24 -2 18 -5z m627 -3 c0 -5 -10 -10 -22 -10 -19 0 -20 2 -8 10 19 13 30 13
30 0z m-788 -9 c-11 -6 -10 -10 4 -15 12 -5 23 -1 31 10 12 17 14 17 26 -1 8
-10 19 -15 25 -11 6 3 13 2 17 -4 4 -6 -17 -10 -59 -10 -64 0 -68 2 -57 38 1
1 7 2 14 2 9 0 9 -2 -1 -9z m282 0 c-17 -4 -36 -11 -41 -14 -6 -4 -13 0 -17 8
-4 12 4 15 42 14 42 -1 44 -2 16 -8z m117 -7 c36 5 56 3 67 -6 12 -10 16 -10
19 -1 3 9 14 11 31 7 55 -13 45 -24 -23 -24 -44 0 -65 4 -56 9 8 5 -17 7 -63
5 -65 -3 -75 -2 -64 10 9 10 17 11 26 4 7 -6 33 -8 63 -4z m329 0 c0 -2 -12
-4 -27 -4 -21 0 -24 3 -14 9 13 8 41 5 41 -5z m-765 -4 c-3 -5 -25 -10 -48 -9
-33 0 -38 2 -22 9 28 12 78 12 70 0z m244 -6 c2 -2 -14 -4 -37 -4 -23 0 -42 5
-42 10 0 10 67 4 79 -6z m110 -20 c2 -2 -20 -4 -50 -3 -41 1 -48 3 -29 9 22 7
68 3 79 -6z"/>
<path d="M3145 460 c3 -5 1 -10 -6 -10 -7 0 -10 -2 -7 -5 7 -8 38 5 38 16 0 5
-7 9 -16 9 -8 0 -12 -4 -9 -10z"/>
<path d="M1893 453 c-20 -7 -15 -22 5 -20 10 0 19 7 19 14 0 14 -4 15 -24 6z"/>
<path d="M2663 463 c9 -2 25 -2 35 0 9 3 1 5 -18 5 -19 0 -27 -2 -17 -5z"/>
</g>
</svg>
